<svg width="185" height="51" viewBox="0 0 185 51" fill="none" xmlns="http://www.w3.org/2000/svg">
<path d="M78.0925 28.0374H66.9515L69.7005 23.6374H76.5587L72.2122 11.1976L65.1144 31.4119H59.6318L67.1031 10.1962C68.2018 7.24462 69.9027 5.74142 72.2166 5.72827C74.5283 5.75457 76.2335 7.24462 77.3036 10.1962L84.7969 31.4119H79.3033L78.0925 28.0374Z" fill="black" fill-opacity="0.5"/>
<path d="M92.8003 27.0142H104.904L107.284 31.4164H92.5125C90.86 31.4164 89.5525 30.7963 88.601 29.545C88.0119 28.8078 87.6946 27.8911 87.7023 26.9484V6.0592H92.8157L92.8003 27.0142Z" fill="black" fill-opacity="0.5"/>
<path d="M113.414 6.05924L110.665 10.4593H105.611V6.05924H113.414ZM117.59 31.412H112.437V10.525C112.437 9.03642 113.084 7.84584 114.379 6.95327C115.23 6.35878 116.247 6.04604 117.286 6.05924H124.885V10.4593H117.59V31.412Z" fill="black" fill-opacity="0.5"/>
<path d="M133.208 21.0671V27.0142H146.318L148.722 31.4164H132.901C131.274 31.4164 129.967 30.8094 128.989 29.5845C128.386 28.8398 128.055 27.9124 128.051 26.955V10.525C128.051 9.03642 128.698 7.84584 129.993 6.95327C130.844 6.35878 131.861 6.04604 132.901 6.05924H148.722L146.318 10.4593H133.208V16.6649H145.294V21.0671H133.208Z" fill="black" fill-opacity="0.5"/>
<path d="M152.687 6.05701H157.868V16.6649H161.144L167.633 6.05701H173.461L165.399 18.7356L173.817 31.412H167.963L161.316 21.0671H157.868V31.412H152.687V6.05701Z" fill="black" fill-opacity="0.5"/>
<path d="M43.4829 6.26963C44.5902 6.26963 45.6522 6.70827 46.4351 7.48905C47.2181 8.26984 47.658 9.32881 47.658 10.433V41.9147C47.658 43.0189 47.2181 44.0779 46.4351 44.8587C45.6522 45.6395 44.5902 46.0781 43.4829 46.0781H11.9277C10.8204 46.0781 9.75841 45.6395 8.97542 44.8587C8.19244 44.0779 7.75256 43.0189 7.75256 41.9147V10.433C7.75256 9.32881 8.19244 8.26984 8.97542 7.48905C9.75841 6.70827 10.8204 6.26963 11.9277 6.26963H43.4829ZM43.4829 4.79272H11.9277C10.4295 4.79907 8.99454 5.39535 7.93518 6.45173C6.87581 7.50812 6.27785 8.93907 6.27148 10.433V41.9147C6.27727 43.4089 6.87505 44.8401 7.93454 45.8966C8.99403 46.9532 10.4293 47.5492 11.9277 47.555H43.4961C44.9944 47.5492 46.4297 46.9532 47.4892 45.8966C48.5487 44.8401 49.1465 43.4089 49.1523 41.9147V10.433C49.1453 8.93697 48.5453 7.50439 47.4833 6.44775C46.4212 5.39112 44.9831 4.79618 43.4829 4.79272Z" fill="black" fill-opacity="0.5"/>
<path d="M17.6626 16.838H15.7992L16.2606 16.0995H17.4121L16.6847 14.0178L15.4959 17.3902H14.584L15.8211 13.8469C16.0057 13.3451 16.2826 13.1085 16.6803 13.0953C17.0781 13.0822 17.3528 13.3451 17.5264 13.8469L18.7811 17.3902H17.8735L17.6626 16.838Z" fill="black" fill-opacity="0.5"/>
<path d="M20.1199 16.6648H22.1415L22.5393 17.4033H20.0671C19.9417 17.4081 19.817 17.3819 19.7042 17.3268C19.5914 17.2717 19.4942 17.1896 19.4211 17.0877C19.3204 16.9642 19.2681 16.8085 19.2739 16.6495V13.161H20.1331L20.1199 16.667V16.6648Z" fill="black" fill-opacity="0.5"/>
<path d="M23.5702 13.1743L23.1065 13.9127H22.2627V13.1743H23.5702ZM24.258 17.4034H23.3988V13.9127C23.3955 13.7949 23.423 13.6782 23.4784 13.5742C23.5339 13.4701 23.6155 13.3821 23.7152 13.3189C23.858 13.2179 24.0303 13.1671 24.2052 13.1743H25.4732V13.9127H24.258V17.4034Z" fill="black" fill-opacity="0.5"/>
<path d="M61.4689 39.3312L60.8866 40.2537H59.8164V39.3312H61.4689ZM62.3479 44.68H61.2645V40.28C61.2602 40.1299 61.2958 39.9814 61.3675 39.8494C61.4393 39.7174 61.5448 39.6067 61.6732 39.5284C61.8507 39.4027 62.0644 39.3381 62.2819 39.3443H63.8795V40.2668H62.3413V44.68H62.3479Z" fill="black" fill-opacity="0.5"/>
<path d="M65.7494 42.1513L66.1207 41.5706H68.0764V39.3312H69.1598V44.68H68.0764V42.4888H65.7494V44.68H64.666V39.3312H65.7494V42.1513Z" fill="black" fill-opacity="0.5"/>
<path d="M71.2214 42.4931V43.7443H73.9836L74.4846 44.6668H71.1555C70.9983 44.6723 70.8422 44.6407 70.6997 44.5744C70.5572 44.5081 70.4325 44.4091 70.3358 44.2856C70.209 44.1283 70.1393 43.9329 70.138 43.7312V40.2668C70.1338 40.1167 70.1693 39.9682 70.2411 39.8362C70.3128 39.7042 70.4183 39.5935 70.5468 39.5152C70.7282 39.3875 70.9467 39.3229 71.1686 39.3312H74.5109L74.0099 40.2537H71.2478V41.5684H73.7968V42.4909H71.2214V42.4931Z" fill="black" fill-opacity="0.5"/>
<path d="M77.2593 40.8585C77.2614 40.6398 77.3181 40.4251 77.4244 40.2338C77.5307 40.0425 77.6831 39.8806 77.868 39.7629C78.2738 39.4678 78.7656 39.3138 79.2677 39.3246H79.9863C80.4265 39.3279 80.8602 39.4313 81.2542 39.627C81.4004 39.7035 81.5375 39.7961 81.663 39.9031L80.7115 40.6284C80.6387 40.5253 80.5445 40.439 80.4353 40.3755C80.3261 40.3119 80.2044 40.2727 80.0786 40.2603H79.2458C79.1006 40.2505 78.955 40.2711 78.8183 40.3209C78.6817 40.3708 78.5571 40.4486 78.4525 40.5495C78.3797 40.634 78.3378 40.7406 78.3338 40.8519C78.3338 41.0382 78.5316 41.196 78.9162 41.3274C79.0348 41.3669 79.2458 41.4326 79.5358 41.4984C80.0533 41.606 80.5522 41.7883 81.0169 42.0396C81.2215 42.1457 81.3942 42.304 81.5173 42.4984C81.6405 42.6929 81.7097 42.9164 81.7179 43.1462C81.7111 43.3654 81.651 43.5797 81.5426 43.7706C81.4343 43.9614 81.281 44.1232 81.096 44.2418C80.6695 44.5371 80.1604 44.6905 79.6413 44.6801H78.9162C78.4596 44.6781 78.0092 44.5748 77.5977 44.3777C77.4475 44.3011 77.306 44.2085 77.1758 44.1016L78.1009 43.3763C78.1844 43.481 78.2885 43.5677 78.4067 43.631C78.525 43.6943 78.655 43.7329 78.7887 43.7444H79.6457C79.8021 43.7561 79.9593 43.7353 80.1072 43.6832C80.2551 43.6312 80.3905 43.549 80.5049 43.442C80.5805 43.3633 80.627 43.2613 80.6367 43.1527C80.6367 42.9336 80.439 42.7693 80.0566 42.6378C80.0039 42.6115 79.6589 42.5195 79.0392 42.3486C78.3119 42.1513 77.824 41.9256 77.5713 41.6495C77.3667 41.4373 77.2545 41.1529 77.2593 40.8585Z" fill="black" fill-opacity="0.5"/>
<path d="M83.6144 42.4932V43.7444H86.3766L86.8798 44.6669H83.5353C83.3786 44.6721 83.2228 44.6402 83.0808 44.574C82.9387 44.5077 82.8144 44.4089 82.7179 44.2856C82.5891 44.1294 82.5184 43.9335 82.5179 43.7313V40.2669C82.5136 40.1166 82.5494 39.9678 82.6216 39.8358C82.6938 39.7037 82.7998 39.5931 82.9288 39.5153C83.1096 39.3879 83.3273 39.3233 83.5485 39.3312H86.893L86.3898 40.2537H83.6276V41.5685H86.1789V42.491H83.6144V42.4932Z" fill="black" fill-opacity="0.5"/>
<path d="M88.5174 41.3603V42.6378C88.5125 42.8044 88.5457 42.97 88.6147 43.1219C88.6836 43.2738 88.7864 43.408 88.9152 43.5143C89.0827 43.6532 89.2929 43.7305 89.5107 43.7334H90.2358C90.5096 43.7372 90.7742 43.6351 90.9742 43.4486C90.9999 43.4257 91.0221 43.3991 91.0401 43.3697L91.9784 44.095C91.6304 44.3797 91.2095 44.5618 90.7632 44.6209C90.5889 44.656 90.4115 44.6736 90.2336 44.6735H89.5085C89.2304 44.677 88.9545 44.6241 88.6976 44.5178C88.4407 44.4116 88.2082 44.2543 88.0142 44.0555C87.826 43.8722 87.6772 43.6525 87.5771 43.4098C87.477 43.1672 87.4276 42.9067 87.4319 42.6444V41.3537C87.4303 41.0804 87.4846 40.8096 87.5915 40.5579C87.6984 40.3062 87.8557 40.0789 88.0538 39.89C88.4441 39.5148 88.9664 39.3071 89.5085 39.3115H90.2336C90.6902 39.3135 91.1406 39.4168 91.5521 39.6139C91.7023 39.6904 91.8438 39.783 91.974 39.89L91.0357 40.6153C90.9522 40.5105 90.8481 40.4238 90.7299 40.3605C90.6116 40.2972 90.4816 40.2586 90.3479 40.2471H89.4887C89.3318 40.2455 89.1773 40.2852 89.0408 40.3622C88.9042 40.4391 88.7904 40.5506 88.7108 40.6854C88.5856 40.8885 88.5187 41.1219 88.5174 41.3603Z" fill="black" fill-opacity="0.5"/>
<path d="M95.3487 44.7457H94.6235C94.3454 44.7492 94.0696 44.6961 93.8127 44.5899C93.5558 44.4837 93.3233 44.3265 93.1293 44.1278C92.9413 43.9443 92.7929 43.7245 92.6932 43.4819C92.5934 43.2392 92.5444 42.9788 92.5491 42.7166V41.2945C92.5471 41.0213 92.601 40.7506 92.7076 40.4989C92.8141 40.2472 92.9711 40.0198 93.1688 39.8307C93.5594 39.456 94.0815 39.2484 94.6235 39.2522H95.3487C95.6268 39.2487 95.9027 39.3016 96.1596 39.4079C96.4165 39.5141 96.649 39.6714 96.8429 39.8702C97.0312 40.0535 97.1799 40.2732 97.28 40.5159C97.3802 40.7585 97.4296 41.019 97.4252 41.2813V42.7035C97.4247 42.9739 97.3704 43.2416 97.2655 43.4909C97.1606 43.7403 97.0071 43.9665 96.814 44.1564C96.6209 44.3463 96.392 44.4962 96.1405 44.5973C95.889 44.6985 95.6199 44.7489 95.3487 44.7457ZM94.6235 43.8232H95.3487C95.5059 43.825 95.6607 43.7854 95.7977 43.7084C95.9346 43.6315 96.0488 43.5199 96.1288 43.3849C96.2617 43.1858 96.3314 42.9514 96.3287 42.7122V41.2901C96.3348 41.1233 96.3021 40.9573 96.2331 40.8053C96.1641 40.6532 96.0607 40.5191 95.931 40.4136C95.7696 40.2732 95.5629 40.1954 95.3487 40.1945H94.6235C94.4663 40.1927 94.3115 40.2323 94.1745 40.3093C94.0376 40.3862 93.9234 40.4978 93.8434 40.6327C93.6976 40.8266 93.6203 41.0631 93.6237 41.3054V42.7276C93.6185 42.894 93.6514 43.0595 93.7199 43.2114C93.7885 43.3633 93.8908 43.4976 94.0192 43.6041C94.1892 43.7445 94.4028 43.8219 94.6235 43.8232Z" fill="black" fill-opacity="0.5"/>
<path d="M99.3682 39.2852C99.7638 39.2852 100.08 39.5043 100.333 39.9688C100.372 40.0477 100.412 40.1288 100.452 40.2208L101.961 43.7575V39.318H103.045V43.7575C103.044 43.9085 103.003 44.0566 102.926 44.1865C102.848 44.3163 102.738 44.4232 102.605 44.496C102.41 44.6258 102.18 44.6945 101.946 44.6932C101.55 44.6932 101.234 44.474 100.981 44.0095C100.942 43.9284 100.902 43.8495 100.863 43.7575L99.3573 40.2274V44.6669H98.2695V40.2274C98.2718 40.0768 98.3136 39.9294 98.3907 39.7998C98.4678 39.6703 98.5775 39.5631 98.709 39.4889C98.9067 39.3638 99.1343 39.2935 99.3682 39.2852Z" fill="black" fill-opacity="0.5"/>
<path d="M104.044 40.28C104.042 40.1282 104.078 39.9783 104.15 39.8445C104.222 39.7106 104.327 39.5973 104.455 39.5153C104.635 39.3958 104.846 39.3318 105.061 39.3312H106.529C106.807 39.3277 107.083 39.3807 107.339 39.4869C107.596 39.5932 107.828 39.7504 108.021 39.9492C108.21 40.1322 108.359 40.3518 108.459 40.5946C108.559 40.8373 108.609 41.0979 108.604 41.3603V42.6378C108.606 42.9119 108.553 43.1837 108.446 43.4362C108.339 43.6888 108.181 43.9167 107.982 44.106C107.592 44.481 107.071 44.6887 106.529 44.6844H104.044V40.28ZM107.507 42.651V41.3603C107.514 41.1937 107.481 41.0278 107.413 40.8757C107.344 40.7236 107.241 40.5895 107.112 40.4838C106.95 40.3441 106.743 40.2664 106.529 40.2647H105.13V43.7554H106.529C106.687 43.7569 106.841 43.7172 106.978 43.6403C107.115 43.5634 107.229 43.4519 107.309 43.3171C107.441 43.12 107.51 42.8878 107.507 42.651Z" fill="black" fill-opacity="0.5"/>
<path d="M111.643 39.3312H112.742V41.5706H113.429L114.803 39.3312H116.025L114.319 42.0045L116.104 44.68H114.882L113.48 42.4888H112.753V44.68H111.654L111.641 39.3312H111.643Z" fill="black" fill-opacity="0.5"/>
<path d="M117.828 42.4932V43.7444H120.588L121.092 44.6669H117.747C117.59 44.6721 117.435 44.6402 117.293 44.574C117.151 44.5077 117.026 44.4089 116.93 44.2856C116.802 44.1286 116.732 43.9332 116.73 43.7313V40.2669C116.726 40.1166 116.762 39.968 116.834 39.8361C116.906 39.7041 117.012 39.5935 117.141 39.5153C117.321 39.3879 117.539 39.3233 117.76 39.3312H121.105L120.602 40.2537H117.842V41.5685H120.391V42.491H117.828V42.4932Z" fill="black" fill-opacity="0.5"/>
<path d="M124.079 41.6496L125.573 39.3312H126.735L125.149 41.8599C125.018 42.0973 124.838 42.3043 124.621 42.4669V44.6582H123.536V42.4669C123.314 42.2953 123.13 42.0797 122.995 41.8336L121.422 39.3049H122.584L124.079 41.6496Z" fill="black" fill-opacity="0.5"/>
</svg>
