<svg width="116" height="51" viewBox="0 0 116 51" fill="none" xmlns="http://www.w3.org/2000/svg">
<path d="M37.3798 19.0636C38.7853 18.4211 39.6927 17.3146 40.1375 15.744L41.116 12.1031C41.3117 11.4249 41.4007 10.8359 41.4007 10.3183C41.4007 7.80182 39.2479 6.55249 34.9068 6.55249H11.2976L3.8252 34.5553H27.4166C32.5939 34.5553 35.654 32.6992 36.6148 28.9869L37.9313 23.9539C38.0203 23.5434 38.0737 23.1864 38.0737 22.8652C38.0737 21.9371 37.5755 21.2589 36.5792 20.8484C35.9031 20.5807 34.551 20.3308 32.5049 20.0631V19.9739C34.7645 19.8311 36.3835 19.5277 37.3798 19.0636ZM27.3632 23.9182L26.1534 28.4158C25.8688 29.4331 25.1927 29.9507 24.1074 29.9507H15.5319L17.5424 22.3833H26.1178C27.0252 22.3833 27.47 22.6689 27.47 23.2221C27.4522 23.3828 27.4166 23.6148 27.3632 23.9182ZM30.3522 12.6564L29.427 16.1723C29.1424 17.2253 28.4663 17.7608 27.3632 17.7608H18.7878L20.5135 11.1572H29.089C29.9964 11.1572 30.4411 11.4427 30.4411 11.996C30.4411 12.1745 30.4056 12.3886 30.3522 12.6564ZM74.0835 17.7251L72.6957 22.5261H54.2105C53.3387 22.5261 52.7516 22.7938 52.4491 23.3471C52.3602 23.5255 52.2712 23.7575 52.1822 24.0431L51.0258 28.4515C50.7589 29.4509 51.1681 29.915 52.2178 29.9328H70.7031L69.4933 34.5553H46.6313C41.6142 34.5375 39.5859 32.6099 40.5823 28.9869L45.208 12.0317C45.3681 11.3713 45.5994 10.7824 45.8663 10.2826C47.1651 7.81967 49.9227 6.60603 54.1215 6.62388L77.0368 6.64173L75.827 11.1572L57.3418 11.175C56.47 11.175 55.8829 11.4427 55.5804 11.996C55.4915 12.1745 55.4025 12.3886 55.3313 12.6385L54.3884 16.3151C54.1037 17.3503 54.5129 17.7608 55.5804 17.7608H74.0835V17.7251ZM110.574 11.3713C110.591 12.228 110.467 13.3703 110.182 14.4411L109.577 16.6721L99.3829 16.7078L100.397 13.0133C100.468 12.7813 100.486 12.585 100.486 12.4243C100.468 11.7818 99.97 11.2464 99.0092 11.1036H92.0528C91.181 11.1036 90.5939 11.3713 90.2915 11.9246C90.2025 12.1031 90.1135 12.3173 90.0424 12.5671L85.7369 28.3979C85.47 29.3974 85.8614 29.915 86.9111 29.915H93.6362C95.1841 29.9328 95.8958 29.3617 96.1982 28.2373L97.408 23.936L107.798 23.9003L106.98 26.9523C105.663 31.9674 103.226 34.5375 98.1553 34.5018L81.2712 34.4839C76.254 34.4661 74.2614 32.5564 75.2933 28.9334L79.9369 11.996C80.097 11.3356 80.3283 10.7467 80.6129 10.2469C81.9295 7.78397 84.7049 6.99868 88.9393 6.58818L104.916 6.60603C108.634 6.67742 110.52 8.33725 110.574 11.3713ZM6.06691 44.8534V41.3196H4.39452V40.6057H8.86017V41.3196H7.20556V44.8534H6.06691ZM13.5571 44.8534V40.6057H17.7381V41.3196H14.6957V42.2655H17.5246V42.9794H14.6957V44.1216H17.8448V44.8355H13.5571V44.8534ZM26.3669 43.2828L27.47 43.5327C27.2921 43.9967 27.0252 44.3537 26.6338 44.5857C26.2424 44.8177 25.7442 44.9248 25.1393 44.9248C24.3921 44.9248 23.7694 44.7285 23.289 44.3537C22.8086 43.961 22.5596 43.4434 22.5596 42.7652C22.5596 42.0513 22.8086 41.5159 23.289 41.1232C23.7694 40.7306 24.4099 40.5343 25.2105 40.5343C25.9043 40.5343 26.4559 40.6949 26.9007 40.9983C27.1497 41.1768 27.3454 41.4445 27.4878 41.7836L26.3491 41.9799C26.278 41.7658 26.1356 41.5873 25.9221 41.4623C25.7086 41.3374 25.4596 41.266 25.1571 41.266C24.7479 41.266 24.3921 41.3731 24.143 41.6051C23.8761 41.8371 23.7516 42.1941 23.7516 42.7117C23.7516 43.2471 23.8761 43.6397 24.143 43.8539C24.3921 44.0859 24.7301 44.193 25.1393 44.193C25.4418 44.193 25.7086 44.1216 25.9221 43.9789C26.1178 43.8361 26.2602 43.6041 26.3669 43.2828ZM32.3804 44.8534V40.6057H33.5191V42.2833H35.7608V40.6057H36.8994V44.8534H35.7608V42.9972H33.5191V44.8534H32.3804ZM42.0234 44.8534V40.6057H43.1264L45.4571 43.4613V40.6057H46.5068V44.8534H45.3681L43.0731 42.0513V44.8534H42.0234ZM51.435 42.7474C51.435 42.319 51.524 41.9442 51.7019 41.6587C51.8264 41.4445 52.0043 41.2482 52.2178 41.0697C52.4491 40.8912 52.6804 40.7663 52.9473 40.6949C53.3031 40.5878 53.7123 40.5343 54.1571 40.5343C54.9933 40.5343 55.6516 40.7306 56.1497 41.1232C56.6479 41.5159 56.897 42.0513 56.897 42.7474C56.897 43.4256 56.6479 43.9789 56.1497 44.3537C55.6516 44.7463 54.9933 44.9426 54.1571 44.9426C53.3209 44.9426 52.6448 44.7463 52.1467 44.3715C51.6663 43.961 51.435 43.4256 51.435 42.7474ZM52.6092 42.7295C52.6092 43.2114 52.7516 43.5684 53.054 43.8182C53.3565 44.0681 53.7301 44.193 54.1749 44.193C54.6375 44.193 55.0111 44.0681 55.2957 43.8182C55.5804 43.5684 55.7405 43.1936 55.7405 42.7117C55.7405 42.2298 55.5982 41.855 55.3135 41.623C55.0289 41.391 54.6553 41.266 54.1749 41.266C53.6945 41.266 53.3209 41.391 53.0362 41.623C52.7516 41.8728 52.6092 42.2298 52.6092 42.7295ZM61.754 44.8534V40.6414H62.8927V44.1395H65.7215V44.8534H61.754ZM70.2583 42.7474C70.2583 42.319 70.3473 41.9442 70.5074 41.6587C70.6319 41.4445 70.8099 41.2482 71.0411 41.0697C71.2724 40.8912 71.5037 40.7663 71.7706 40.6949C72.1264 40.5878 72.5356 40.5343 72.9804 40.5343C73.8166 40.5343 74.4749 40.7306 74.973 41.1232C75.4712 41.5159 75.7203 42.0513 75.7203 42.7474C75.7203 43.4256 75.4712 43.9789 74.973 44.3537C74.4749 44.7463 73.8166 44.9426 72.9804 44.9426C72.1442 44.9426 71.4681 44.7463 70.97 44.3715C70.5074 43.961 70.2583 43.4256 70.2583 42.7474ZM71.4326 42.7295C71.4326 43.2114 71.5749 43.5684 71.8773 43.8182C72.1798 44.0681 72.5534 44.193 72.9982 44.193C73.4608 44.193 73.8344 44.0681 74.1191 43.8182C74.4037 43.5684 74.5461 43.1936 74.5461 42.7117C74.5461 42.2298 74.4037 41.855 74.1191 41.623C73.8344 41.391 73.4608 41.266 72.9804 41.266C72.5178 41.266 72.1264 41.391 71.8418 41.623C71.5749 41.8728 71.4326 42.2298 71.4326 42.7295ZM83.1749 43.3006V42.5867H85.6301V44.2823C85.3988 44.4607 85.043 44.6035 84.5982 44.7463C84.1356 44.8712 83.6908 44.9426 83.2283 44.9426C82.6411 44.9426 82.1252 44.8534 81.6804 44.6571C81.2356 44.4607 80.9154 44.193 80.6841 43.8539C80.4528 43.5148 80.3461 43.1222 80.3461 42.7295C80.3461 42.2833 80.4706 41.8907 80.7197 41.5516C80.9688 41.2125 81.3246 40.9448 81.8049 40.7484C82.1786 40.6057 82.6234 40.5343 83.1571 40.5343C83.851 40.5343 84.4025 40.6414 84.7939 40.8734C85.1853 41.1054 85.4344 41.4088 85.5589 41.8014L84.4203 41.9621C84.3491 41.7479 84.189 41.5873 83.9755 41.4623C83.762 41.3374 83.4773 41.2839 83.1571 41.2839C82.6589 41.2839 82.2675 41.4088 81.9651 41.6408C81.6626 41.8728 81.5203 42.2298 81.5203 42.6938C81.5203 43.1936 81.6626 43.5862 81.9651 43.8182C82.2675 44.0681 82.6589 44.193 83.1393 44.193C83.3706 44.193 83.6197 44.1573 83.851 44.0859C84.0823 44.0146 84.2957 43.9253 84.4737 43.8361V43.3006H83.1749ZM90.5939 40.6057H91.7326V44.8534H90.5939V40.6057ZM96.7675 44.8534V40.6057H100.949V41.3196H97.9062V42.2655H100.735V42.9794H97.9062V44.1216H101.055V44.8355H96.7675V44.8534ZM105.681 43.4613L106.784 43.372C106.855 43.6576 106.98 43.8539 107.193 43.9967C107.389 44.1216 107.674 44.193 108.012 44.193C108.368 44.193 108.652 44.1395 108.83 44.0146C109.008 43.9075 109.115 43.7647 109.115 43.6041C109.115 43.497 109.079 43.4256 108.99 43.3542C108.919 43.2828 108.777 43.2293 108.581 43.1757C108.456 43.14 108.154 43.0865 107.674 42.9972C107.069 42.8902 106.642 42.7474 106.393 42.5689C106.055 42.3369 105.877 42.0513 105.877 41.7122C105.877 41.498 105.966 41.3017 106.126 41.1054C106.286 40.9091 106.517 40.7663 106.82 40.6771C107.122 40.5878 107.496 40.5343 107.923 40.5343C108.634 40.5343 109.15 40.6592 109.524 40.8912C109.88 41.1232 110.076 41.4445 110.076 41.8371L108.937 41.8728C108.883 41.6587 108.795 41.498 108.634 41.391C108.474 41.3017 108.243 41.2482 107.923 41.2482C107.602 41.2482 107.336 41.3017 107.158 41.4088C107.033 41.4802 106.98 41.5694 106.98 41.6765C106.98 41.7836 107.033 41.8728 107.158 41.9442C107.3 42.0335 107.656 42.1227 108.207 42.2298C108.759 42.319 109.168 42.4261 109.435 42.5332C109.702 42.6403 109.898 42.7831 110.058 42.9615C110.2 43.14 110.289 43.372 110.289 43.6398C110.289 43.8896 110.2 44.1038 110.022 44.318C109.844 44.5321 109.595 44.6928 109.257 44.7998C108.937 44.9069 108.528 44.9605 108.029 44.9605C107.318 44.9605 106.766 44.8355 106.393 44.5857C105.983 44.3001 105.752 43.9432 105.681 43.4613Z" fill="black" fill-opacity="0.5"/>
</svg>
