<svg width="128" height="33" viewBox="0 0 128 33" fill="none" xmlns="http://www.w3.org/2000/svg">
<path d="M32.7707 32.7429C31.4409 32.7429 30.3486 32.5529 29.4937 32.1729C28.3538 31.698 27.5939 30.8431 27.214 29.6083C26.834 28.3734 26.644 26.9961 26.644 25.4763C26.644 24.7164 26.644 24.004 26.644 23.3391C26.739 22.5792 26.834 21.8668 26.929 21.2019L20.3749 25.9037C19.33 26.5687 17.9052 27.4236 16.1004 28.4684C14.3906 29.5133 12.5859 30.4632 10.6861 31.318C8.78636 32.0779 6.98159 32.4579 5.27182 32.4579C3.847 32.4579 2.75464 32.1254 1.99474 31.4605C0.664914 30.4157 0 28.8009 0 26.6162C0 25.0014 0.332457 23.1966 0.99737 21.2019C1.66228 19.1121 2.51717 17.0224 3.56204 14.9327C4.51191 13.0329 5.98422 10.9432 7.97896 8.66349C10.0687 6.38379 12.3484 4.43654 14.8181 2.82175C17.3827 1.11197 19.8524 0.25708 22.2271 0.25708C24.6968 0.25708 26.5965 1.20696 27.9264 3.10671C29.2562 4.91148 29.9211 7.33366 29.9211 10.3733C29.9211 10.8482 29.8736 11.3706 29.7786 11.9406C29.7786 12.5105 29.7311 13.0804 29.6361 13.6503C30.2061 13.2704 31.4409 12.5105 33.3407 11.3706C35.2404 10.2308 37.4251 9.04344 39.8948 7.8086C42.4595 6.47877 44.9767 5.33892 47.4463 4.38904C50.011 3.43917 52.1957 2.96423 54.0005 2.96423C55.2353 2.96423 56.2327 3.24919 56.9926 3.81912C57.7525 4.38904 58.1324 5.33892 58.1324 6.66875C58.1324 7.90359 57.7525 9.56587 56.9926 11.6556C55.8527 14.7902 53.953 18.0198 51.2933 21.3443C48.6337 24.5739 45.6416 27.2811 42.317 29.4658C38.9924 31.6505 35.8103 32.7429 32.7707 32.7429ZM8.54889 23.0541C11.2085 23.0541 14.9606 21.8193 19.8049 19.3496C20.8498 18.7797 22.0371 18.1148 23.367 17.3549C24.6968 16.5 26.1691 15.5976 27.7839 14.6477C27.9739 10.4683 27.4039 7.47614 26.0741 5.67138C24.7443 3.86661 22.987 2.96423 20.8023 2.96423C18.2376 2.96423 15.4355 4.10408 12.3959 6.38379C9.45127 8.66349 7.07658 11.6556 5.27182 15.3601C4.51191 16.8799 4.13196 18.2097 4.13196 19.3496C4.13196 21.8193 5.60427 23.0541 8.54889 23.0541ZM34.7655 23.909C36.5702 23.909 38.6125 23.3391 40.8922 22.1992C43.1719 21.0594 45.3566 19.5871 47.4463 17.7823C49.6311 15.8826 51.3408 13.8878 52.5757 11.7981C53.4306 10.3733 53.858 9.28091 53.858 8.52101C53.858 7.76111 53.4306 7.38116 52.5757 7.38116C51.3408 7.38116 49.5361 7.95108 47.1614 9.09093C44.7867 10.2308 42.2695 11.6081 39.6098 13.2229C37.0452 14.7427 34.7655 16.12 32.7707 17.3549C30.871 18.5897 29.7786 19.3496 29.4937 19.6346C29.7786 21.1544 30.396 22.2467 31.3459 22.9116C32.2958 23.5766 33.4357 23.909 34.7655 23.909Z" fill="black" fill-opacity="0.5"/>
<path d="M117.511 32.2328C115.889 32.2328 114.575 32.1713 113.567 32.0485C112.585 31.9502 111.847 31.7413 111.356 31.4219C110.865 31.0779 110.558 30.6111 110.435 30.0214C110.336 29.4317 110.349 28.6823 110.472 27.7732C110.644 26.5201 110.914 25.5618 111.282 24.8984C111.651 24.235 112.179 23.7928 112.867 23.5716C113.555 23.3259 114.44 23.2031 115.521 23.2031C116.16 23.2031 116.86 23.2153 117.622 23.2399C118.383 23.2399 119.133 23.2522 119.87 23.2768C120.607 23.3013 121.246 23.3505 121.786 23.4242C122.327 23.4733 122.695 23.5225 122.892 23.5716C123.015 22.6871 123.039 21.9868 122.966 21.4708C122.892 20.9548 122.695 20.5617 122.376 20.2914C122.081 20.0212 121.676 19.8492 121.16 19.7755C120.644 19.7017 120.017 19.6649 119.28 19.6649C118.445 19.6649 117.597 19.6895 116.737 19.7386C115.902 19.7632 115.091 19.8246 114.305 19.9229C113.543 19.9966 112.867 20.1072 112.277 20.2546L112.425 19.4069C112.523 18.7926 112.732 18.3504 113.051 18.0801C113.395 17.7852 113.801 17.5887 114.268 17.4904C114.808 17.3675 115.607 17.2815 116.663 17.2324C117.744 17.1833 118.875 17.1587 120.054 17.1587C121.577 17.1587 122.843 17.2324 123.85 17.3798C124.882 17.5273 125.668 17.8221 126.209 18.2644C126.774 18.7066 127.13 19.3578 127.278 20.2177C127.45 21.0531 127.438 22.1834 127.241 23.6085L126.172 31.0534C125.804 31.4711 124.894 31.7782 123.445 31.9748C122.02 32.1468 120.042 32.2328 117.511 32.2328ZM117.769 30.3162C118.998 30.3162 119.956 30.2671 120.644 30.1688C121.332 30.0705 121.799 29.9108 122.044 29.6897L122.671 25.1196C122.45 25.0459 122.081 24.9844 121.565 24.9353C121.049 24.8616 120.509 24.8124 119.943 24.7879C119.403 24.7387 118.961 24.7142 118.617 24.7142C117.88 24.7142 117.265 24.7756 116.774 24.8984C116.282 24.9967 115.914 25.2424 115.668 25.6355C115.422 26.0287 115.238 26.6429 115.115 27.4783C115.017 28.1418 115.005 28.6946 115.079 29.1369C115.177 29.5546 115.422 29.8617 115.816 30.0583C116.233 30.2303 116.884 30.3162 117.769 30.3162Z" fill="black" fill-opacity="0.5"/>
<path d="M104.585 32.1958C103.43 32.1958 102.546 32.073 101.931 31.8273C101.317 31.557 100.912 31.127 100.715 30.5373C100.543 29.923 100.531 29.0876 100.678 28.0311L101.821 19.7017H100.347L100.678 17.3429H102.189L102.484 15.1684C102.558 14.6524 102.644 14.2716 102.742 14.0259C102.865 13.7801 103.049 13.6204 103.295 13.5467C103.541 13.473 103.897 13.4362 104.364 13.4362H107.239C107.214 13.5099 107.19 13.6327 107.165 13.8047C107.14 13.9521 107.116 14.1487 107.091 14.3944L106.649 17.3429H110.187L109.856 19.7017H106.317L105.212 27.6257C105.089 28.5839 105.089 29.2842 105.212 29.7265C105.359 30.1442 105.814 30.353 106.575 30.353C106.821 30.353 107.104 30.3284 107.423 30.2793C107.767 30.2302 108.013 30.181 108.16 30.1319L107.939 31.8641C107.767 31.8887 107.374 31.9501 106.76 32.0484C106.17 32.1467 105.445 32.1958 104.585 32.1958Z" fill="black" fill-opacity="0.5"/>
<path d="M88.051 32.2328C86.4294 32.2328 85.1148 32.1713 84.1075 32.0485C83.1246 31.9502 82.3875 31.7413 81.8961 31.4219C81.4047 31.0779 81.0976 30.6111 80.9747 30.0214C80.8764 29.4317 80.8887 28.6823 81.0116 27.7732C81.1836 26.5201 81.4538 25.5618 81.8224 24.8984C82.1909 24.235 82.7192 23.7928 83.4072 23.5716C84.0952 23.3259 84.9797 23.2031 86.0608 23.2031C86.6997 23.2031 87.3999 23.2153 88.1616 23.2399C88.9233 23.2399 89.6727 23.2522 90.4098 23.2768C91.1469 23.3013 91.7858 23.3505 92.3263 23.4242C92.8669 23.4733 93.2354 23.5225 93.432 23.5716C93.5548 22.6871 93.5794 21.9868 93.5057 21.4708C93.432 20.9548 93.2354 20.5617 92.916 20.2914C92.6212 20.0212 92.2158 19.8492 91.6998 19.7755C91.1838 19.7017 90.5572 19.6649 89.8201 19.6649C88.9847 19.6649 88.137 19.6895 87.2771 19.7386C86.4417 19.7632 85.6308 19.8246 84.8446 19.9229C84.0829 19.9966 83.4072 20.1072 82.8175 20.2546L82.9649 19.4069C83.0632 18.7926 83.2721 18.3504 83.5915 18.0801C83.9355 17.7852 84.3409 17.5887 84.8077 17.4904C85.3483 17.3675 86.1468 17.2815 87.2033 17.2324C88.2845 17.1833 89.4147 17.1587 90.5941 17.1587C92.1175 17.1587 93.3829 17.2324 94.3903 17.3798C95.4222 17.5273 96.2085 17.8221 96.749 18.2644C97.3142 18.7066 97.6704 19.3578 97.8179 20.2177C97.9898 21.0531 97.9776 22.1834 97.781 23.6085L96.7122 31.0534C96.3436 31.4711 95.4345 31.7782 93.9848 31.9748C92.5597 32.1468 90.5818 32.2328 88.051 32.2328ZM88.309 30.3162C89.5376 30.3162 90.4958 30.2671 91.1838 30.1688C91.8718 30.0705 92.3386 29.9108 92.5843 29.6897L93.2109 25.1196C92.9897 25.0459 92.6212 24.9844 92.1052 24.9353C91.5892 24.8616 91.0486 24.8124 90.4835 24.7879C89.943 24.7387 89.5007 24.7142 89.1567 24.7142C88.4196 24.7142 87.8053 24.7756 87.3139 24.8984C86.8225 24.9967 86.4539 25.2424 86.2082 25.6355C85.9625 26.0287 85.7783 26.6429 85.6554 27.4783C85.5571 28.1418 85.5448 28.6946 85.6185 29.1369C85.7168 29.5546 85.9625 29.8617 86.3557 30.0583C86.7734 30.2303 87.4245 30.3162 88.309 30.3162Z" fill="black" fill-opacity="0.5"/>
<path d="M67.6039 32.0852C66.8177 32.0852 66.0068 32.0852 65.1714 32.0852C64.336 32.0852 63.5129 32.0729 62.7021 32.0483C61.9158 32.0483 61.1664 32.0483 60.4539 32.0483C59.7413 32.0483 59.1148 32.0483 58.5742 32.0483L60.5644 17.7114C60.7119 16.8268 60.933 16.1757 61.2278 15.758C61.5473 15.3403 62.1984 15.1192 63.1812 15.0946C63.7463 15.0946 64.3852 15.0946 65.0977 15.0946C65.8103 15.07 66.5597 15.0577 67.3459 15.0577C68.1322 15.0577 68.9184 15.0577 69.7047 15.0577C70.491 15.0577 71.2281 15.0577 71.9161 15.0577C73.5377 15.0823 74.8891 15.2297 75.9702 15.5C77.0513 15.7703 77.8744 16.2126 78.4395 16.8268C79.0292 17.4411 79.3978 18.3133 79.5452 19.4436C79.6926 20.5493 79.6435 21.9744 79.3978 23.7189C79.1275 25.5862 78.7221 27.0728 78.1816 28.1784C77.641 29.2841 76.9162 30.1195 76.0071 30.6846C75.1225 31.2498 73.9923 31.6306 72.6163 31.8272C71.2404 31.9992 69.5696 32.0852 67.6039 32.0852ZM68.2673 29.5421C69.2993 29.5421 70.1715 29.4561 70.8841 29.2841C71.6212 29.0876 72.2232 28.7681 72.69 28.3259C73.1814 27.859 73.5623 27.257 73.8326 26.5199C74.1274 25.7582 74.3608 24.8246 74.5328 23.7189C74.7048 22.3429 74.754 21.2495 74.6802 20.4387C74.6311 19.6033 74.4223 18.9768 74.0537 18.5591C73.7097 18.1414 73.1937 17.8711 72.5057 17.7482C71.8178 17.6254 70.9455 17.5639 69.889 17.5639C69.6433 17.5639 69.3361 17.5639 68.9676 17.5639C68.6236 17.5639 68.255 17.5762 67.8619 17.6008C67.4688 17.6008 67.0879 17.6008 66.7194 17.6008C66.3754 17.6008 66.0928 17.6131 65.8717 17.6377C65.7488 17.7605 65.6383 17.9079 65.54 18.0799C65.4417 18.2519 65.368 18.5222 65.3188 18.8908L63.8078 29.5053C64.0289 29.5053 64.3237 29.5053 64.6923 29.5053C65.0854 29.5053 65.5031 29.5175 65.9454 29.5421C66.3877 29.5421 66.8177 29.5421 67.2354 29.5421C67.6531 29.5421 67.997 29.5421 68.2673 29.5421Z" fill="black" fill-opacity="0.5"/>
</svg>
