<svg width="1129" height="632" viewBox="0 0 1129 632" fill="none" xmlns="http://www.w3.org/2000/svg">
<rect width="1128.46" height="632" fill="white"/>
<path d="M970.333 386.352C970.333 386.352 970.331 386.354 970.328 386.357C970.331 386.354 970.333 386.352 970.333 386.352ZM969.994 386.491C970.004 386.495 970.015 386.498 970.025 386.502C970.015 386.506 970.004 386.509 969.994 386.513C969.658 386.631 969.135 386.754 968.415 386.88C966.98 387.131 964.834 387.38 962.003 387.625C956.347 388.116 947.998 388.59 937.237 389.041C915.719 389.944 884.578 390.758 846.093 391.441C769.125 392.807 662.792 393.652 545.34 393.652C427.887 393.652 321.555 392.807 244.586 391.441C206.102 390.758 174.961 389.944 153.442 389.041C142.682 388.59 134.333 388.116 128.676 387.625C125.846 387.38 123.699 387.131 122.265 386.88C121.545 386.754 121.022 386.631 120.686 386.513C120.675 386.509 120.665 386.506 120.655 386.502C120.665 386.498 120.675 386.495 120.686 386.491C121.022 386.373 121.545 386.25 122.265 386.124C123.699 385.873 125.846 385.624 128.676 385.379C134.333 384.888 142.682 384.414 153.442 383.963C174.961 383.06 206.102 382.246 244.586 381.563C321.555 380.197 427.887 379.352 545.34 379.352C662.792 379.352 769.125 380.197 846.093 381.563C884.578 382.246 915.719 383.06 937.237 383.963C947.998 384.414 956.347 384.888 962.003 385.379C964.834 385.624 966.98 385.873 968.415 386.124C969.135 386.25 969.658 386.373 969.994 386.491ZM120.347 386.352C120.347 386.352 120.349 386.354 120.352 386.357C120.348 386.354 120.346 386.352 120.347 386.352ZM120.347 386.652C120.346 386.652 120.348 386.651 120.352 386.647C120.349 386.651 120.347 386.652 120.347 386.652ZM970.328 386.647C970.331 386.651 970.333 386.652 970.333 386.652C970.333 386.652 970.331 386.651 970.328 386.647Z" fill="black" stroke="#222222" stroke-width="0.8" stroke-linecap="round" stroke-linejoin="round"/>
<path d="M151.066 370.753H220.698L233.282 373.265H729.931L849.06 364.037C892.013 360.01 914.497 352.851 920.369 349.775H932.115C945.537 357.157 951.69 350.054 953.088 345.58H968.189C986.31 343.567 1007.62 327.123 1007.62 322.09L1008.46 310.345C1008.46 303.633 999.229 301.117 969.867 294.405C969.867 288.532 969.104 279.304 968.189 275.948C966.175 268.566 938.407 254.136 932.115 246.586C928.759 242.559 924.564 234.786 947.215 232.324C978.088 228.968 990.84 207.995 985.806 207.995H954.766C951.41 209.337 944.978 214.706 942.182 217.223L884.295 216.383C849.396 194.235 755.659 158.498 713.153 143.398C663.656 125.815 545.34 131.153 531.078 136.5C525.709 138.514 519.359 140.824 517.681 141.716C486.137 158.495 438.542 196.247 418.687 213.026C403.25 214.368 394.917 216.382 392.68 217.22L344.86 225.051C282.782 226.164 221.606 232.436 196.369 236.523C172.04 240.464 165.329 268.962 165.329 282.665C159.456 286.3 146.201 293.906 140.161 295.249C134.12 296.591 127.576 302.519 125.059 305.316C120.026 305.316 120.865 319.578 125.898 319.578C125.898 320.92 128.415 328.806 130.932 328.806H140.999C144.355 338.873 151.346 350.898 154.422 355.652C151.066 360.35 148.55 370.753 151.066 370.753Z" fill="black"/>
<path fill-rule="evenodd" clip-rule="evenodd" d="M304.593 392.56C339.806 392.56 368.352 364.014 368.352 328.801C368.352 293.588 339.806 265.042 304.593 265.042C269.38 265.042 240.834 293.588 240.834 328.801C240.834 364.014 269.38 392.56 304.593 392.56ZM304.593 378.392C331.981 378.392 354.183 356.19 354.183 328.802C354.183 301.414 331.981 279.211 304.593 279.211C277.205 279.211 255.002 301.414 255.002 328.802C255.002 356.19 277.205 378.392 304.593 378.392Z" fill="black"/>
<circle cx="304.593" cy="328.802" r="49.732" fill="url(#paint0_linear_77_19838)"/>
<circle cx="303.318" cy="328.801" r="36.6002" fill="black" stroke="black" stroke-width="0.76"/>
<path d="M300.426 308.371C301.336 305.57 305.299 305.57 306.209 308.371L309.22 317.638C309.627 318.891 310.794 319.739 312.111 319.739H321.855C324.8 319.739 326.024 323.507 323.642 325.238L315.759 330.965C314.693 331.74 314.247 333.112 314.654 334.364L317.665 343.631C318.575 346.432 315.37 348.761 312.987 347.03L305.104 341.303C304.039 340.529 302.596 340.529 301.531 341.303L293.647 347.03C291.265 348.761 288.059 346.432 288.969 343.631L291.98 334.364C292.387 333.112 291.942 331.74 290.876 330.965L282.993 325.238C280.611 323.507 281.835 319.739 284.78 319.739H294.524C295.841 319.739 297.008 318.891 297.415 317.638L300.426 308.371Z" fill="#747474"/>
<path d="M291.766 290.977L303.32 327.363L314.874 290.977H291.766Z" fill="url(#paint1_linear_77_19838)" stroke="#747474" stroke-width="0.868571"/>
<path d="M343.141 329.064L304.966 328.653L336.385 306.966L343.141 329.064Z" fill="url(#paint2_linear_77_19838)" stroke="#747474" stroke-width="0.868571"/>
<path d="M263.094 329.064L301.268 328.653L269.85 306.966L263.094 329.064Z" fill="url(#paint3_linear_77_19838)" stroke="#747474" stroke-width="0.868571"/>
<path d="M270.686 351.638L303.964 330.043L288.379 366.525L270.686 351.638Z" fill="url(#paint4_linear_77_19838)" stroke="#747474" stroke-width="0.868571"/>
<path d="M336.813 351.638L303.535 330.043L319.12 366.525L336.813 351.638Z" fill="url(#paint5_linear_77_19838)" stroke="#747474" stroke-width="0.868571"/>
<path d="M347.568 328.8C347.568 353.239 327.756 373.051 303.317 373.051C278.878 373.051 259.066 353.239 259.066 328.8C259.066 304.36 278.878 284.548 303.317 284.548C327.756 284.548 347.568 304.36 347.568 328.8ZM303.317 366.16C323.95 366.16 340.677 349.433 340.677 328.8C340.677 308.166 323.95 291.44 303.317 291.44C282.683 291.44 265.957 308.166 265.957 328.8C265.957 349.433 282.683 366.16 303.317 366.16Z" fill="url(#paint6_linear_77_19838)" stroke="black" stroke-width="0.76"/>
<circle cx="303.318" cy="328.801" r="9.82144" fill="#5B5B5B" stroke="black" stroke-width="0.76"/>
<path fill-rule="evenodd" clip-rule="evenodd" d="M791.174 392.56C826.387 392.56 854.933 364.014 854.933 328.801C854.933 293.588 826.387 265.042 791.174 265.042C755.96 265.042 727.415 293.588 727.415 328.801C727.415 364.014 755.96 392.56 791.174 392.56ZM791.173 378.392C818.561 378.392 840.764 356.19 840.764 328.802C840.764 301.414 818.561 279.211 791.173 279.211C763.785 279.211 741.583 301.414 741.583 328.802C741.583 356.19 763.785 378.392 791.173 378.392Z" fill="black"/>
<circle cx="791.173" cy="328.802" r="49.732" fill="url(#paint7_linear_77_19838)"/>
<circle cx="789.899" cy="328.801" r="36.6002" fill="black" stroke="black" stroke-width="0.76"/>
<path d="M787.007 308.371C787.917 305.57 791.879 305.57 792.789 308.371L795.8 317.638C796.207 318.891 797.374 319.739 798.691 319.739H808.435C811.38 319.739 812.605 323.507 810.222 325.238L802.339 330.965C801.274 331.74 800.828 333.112 801.235 334.364L804.246 343.631C805.156 346.432 801.95 348.761 799.568 347.03L791.685 341.303C790.619 340.529 789.177 340.529 788.111 341.303L780.228 347.03C777.846 348.761 774.64 346.432 775.55 343.631L778.561 334.364C778.968 333.112 778.522 331.74 777.457 330.965L769.574 325.238C767.191 323.507 768.416 319.739 771.36 319.739H781.105C782.422 319.739 783.589 318.891 783.996 317.638L787.007 308.371Z" fill="#747474"/>
<path d="M778.344 290.977L789.898 327.364L801.452 290.977H778.344Z" fill="url(#paint8_linear_77_19838)" stroke="#747474" stroke-width="0.868571"/>
<path d="M829.72 329.064L791.546 328.653L822.964 306.966L829.72 329.064Z" fill="url(#paint9_linear_77_19838)" stroke="#747474" stroke-width="0.868571"/>
<path d="M749.674 329.064L787.848 328.653L756.43 306.966L749.674 329.064Z" fill="url(#paint10_linear_77_19838)" stroke="#747474" stroke-width="0.868571"/>
<path d="M757.265 351.638L790.543 330.044L774.959 366.525L757.265 351.638Z" fill="url(#paint11_linear_77_19838)" stroke="#747474" stroke-width="0.868571"/>
<path d="M823.392 351.638L790.114 330.044L805.699 366.525L823.392 351.638Z" fill="url(#paint12_linear_77_19838)" stroke="#747474" stroke-width="0.868571"/>
<path d="M834.15 328.8C834.15 353.239 814.338 373.051 789.898 373.051C765.459 373.051 745.647 353.239 745.647 328.8C745.647 304.361 765.459 284.549 789.898 284.549C814.338 284.549 834.15 304.361 834.15 328.8ZM789.898 366.16C810.532 366.16 827.259 349.433 827.259 328.8C827.259 308.167 810.532 291.44 789.898 291.44C769.265 291.44 752.538 308.167 752.538 328.8C752.538 349.433 769.265 366.16 789.898 366.16Z" fill="url(#paint13_linear_77_19838)" stroke="black" stroke-width="0.76"/>
<circle cx="789.898" cy="328.801" r="9.82144" fill="#5B5B5B" stroke="black" stroke-width="0.76"/>
<path d="M151.066 370.751H220.698C220.139 334.396 235.631 261.685 302.075 261.685C368.518 261.685 388.485 336.07 390.163 373.263H694.696C698.331 368.23 706.273 354.303 708.958 338.867C712.314 319.571 728.253 265.88 788.657 265.88C849.06 265.88 868.356 312.087 867.517 361.971C898.564 357.893 915.404 352.374 920.369 349.773H932.115C945.537 357.156 951.69 350.053 953.088 345.578H968.189C986.31 343.565 1007.62 327.122 1007.62 322.088L1008.46 310.343C1008.46 303.632 999.229 301.115 969.867 294.403C969.867 288.531 969.104 279.302 968.189 275.947C966.175 268.564 938.407 254.134 932.115 246.584C928.759 242.557 924.564 234.784 947.215 232.322C978.088 228.966 990.84 207.993 985.806 207.993H954.766C951.41 209.335 944.978 214.705 942.182 217.221L884.295 216.382C849.396 194.234 755.659 158.496 713.153 143.396C642.656 121.399 538.654 129.66 524.392 135.007C519.023 137.02 519.359 140.822 517.681 141.715C486.137 158.493 438.542 196.245 418.687 213.024C403.25 214.366 394.917 216.38 392.68 217.219L344.86 225.049C282.782 226.162 221.606 232.434 196.369 236.521C172.04 240.462 165.329 268.96 165.329 282.663C160.973 285.359 152.555 290.24 146.033 293.13C143.762 294.136 141.721 294.9 140.161 295.247C134.12 296.589 127.576 302.518 125.059 305.314C120.026 305.314 120.865 319.576 125.898 319.576C125.898 320.918 128.415 328.804 130.932 328.804H140.999C144.355 338.871 151.346 350.896 154.422 355.65C151.066 360.348 148.55 370.751 151.066 370.751Z" fill="url(#paint14_linear_77_19838)" stroke="#2C2A2A" stroke-opacity="0.8" stroke-width="0.8" stroke-linecap="round" stroke-linejoin="round"/>
<path d="M399.391 225.61C381.743 224.842 363.262 224.719 344.86 225.049L392.68 217.218C394.917 216.379 403.25 214.366 418.687 213.024C425.398 212.329 440.499 216.652 447.21 218.9C433.787 222.256 410.297 226.084 399.391 225.61Z" fill="url(#paint15_linear_77_19838)"/>
<path d="M390.162 373.264H694.695C696.849 370.281 700.515 364.176 703.704 356.485L609.963 357.484V351.451C607.446 349.774 600.227 350.176 597.379 351.451V357.619L388.914 359.841C389.574 364.664 389.978 369.187 390.162 373.264Z" fill="#292929" stroke="#222222" stroke-width="0.8" stroke-linecap="round" stroke-linejoin="round"/>
<path d="M701.038 362.379L389.436 364.037C389.626 365.765 389.783 367.446 389.908 369.071L698.862 366.554C699.57 365.273 700.302 363.876 701.038 362.379Z" fill="#444444" stroke="#222222" stroke-width="0.8" stroke-linecap="round" stroke-linejoin="round"/>
<path d="M151.067 370.752H220.699C220.522 359.256 221.95 344.125 226.087 328.806H209.793C208.115 347.258 208.954 352.291 201.403 353.969C189.323 356.654 167.566 355.93 158.618 355.652C156.94 355.6 147.152 335.519 144.356 328.806L141 328.806C144.356 338.873 151.347 350.898 154.423 355.652C151.067 360.35 148.55 370.752 151.067 370.752Z" fill="#292929" stroke="#222222" stroke-width="0.8" stroke-linecap="round" stroke-linejoin="round"/>
<path d="M969.867 294.404C969.867 290.241 969.483 284.391 968.934 280.143H932.953C927.081 280.143 923.725 295.243 922.886 299.438H968.189C969.028 299.438 969.867 296.921 969.867 294.404Z" fill="url(#paint16_linear_77_19838)" stroke="#222222" stroke-width="0.8" stroke-linecap="round" stroke-linejoin="round"/>
<path d="M940.478 298.414L943.834 281.635H947.19L943.834 298.414H940.478Z" fill="#B44B13"/>
<path d="M1008.46 310.344C1008.46 303.633 999.23 301.116 969.867 294.404C969.867 296.921 969.028 299.438 968.189 299.438H922.887V328.801H904.43C902.752 329.64 899.396 331.821 899.396 333.834H953.088V343.901L932.115 349.774C945.538 357.157 951.69 350.054 953.088 345.579H968.189C986.31 343.566 1007.62 327.123 1007.62 322.089L1008.46 310.344Z" fill="url(#paint17_linear_77_19838)" stroke="#222222" stroke-width="0.8" stroke-linecap="round" stroke-linejoin="round"/>
<path d="M1008.46 310.344C1008.46 303.633 999.23 301.116 969.867 294.404C969.867 296.921 969.028 299.438 968.189 299.438H955.605H949.732V333.834H953.088L954.766 310.903H988.323C992.127 314.912 997.082 326.284 986.478 339.707C998.155 333.866 1007.62 325.444 1007.62 322.089L1008.46 310.344Z" fill="url(#paint18_linear_77_19838)" stroke="#222222" stroke-width="0.8" stroke-linecap="round" stroke-linejoin="round"/>
<path d="M953.088 331.318V322.089H986.646C986.646 327.458 979.095 331.318 974.901 331.318H953.088Z" fill="url(#paint19_linear_77_19838)"/>
<path d="M955.605 306.988C952.249 306.317 953.368 301.396 954.766 300.277H969.867V296.082H971.545C973.951 296.753 980.773 300.277 987.485 304.472H970.706V306.988H955.605Z" fill="url(#paint20_linear_77_19838)"/>
<path d="M953.088 331.318V322.089H986.646C986.646 327.458 979.095 331.318 974.901 331.318H953.088Z" stroke="#222222" stroke-width="0.8" stroke-linecap="round" stroke-linejoin="round"/>
<path d="M955.605 306.988C952.249 306.317 953.368 301.396 954.766 300.277H969.867V296.082H971.545C973.951 296.753 980.773 300.277 987.485 304.472H970.706V306.988H955.605Z" stroke="#222222" stroke-width="0.8" stroke-linecap="round" stroke-linejoin="round"/>
<path d="M920.369 349.773H932.114L953.088 343.901V333.834H899.396H865.606C867.092 342.873 867.678 352.353 867.517 361.97C898.564 357.893 915.404 352.373 920.369 349.773Z" fill="url(#paint21_linear_77_19838)" stroke="#222222" stroke-width="0.8" stroke-linecap="round" stroke-linejoin="round"/>
<path d="M922.887 299.438V301.116L855.632 302.794" stroke="#222222" stroke-width="0.8" stroke-linecap="round" stroke-linejoin="round"/>
<path d="M730.77 161.015C720.032 157.659 718.466 149.272 719.025 145.499C752.132 157.417 808.478 178.92 849.06 197.877C849.06 199.85 843.188 205.405 839.832 203.8C820.536 194.572 744.193 165.209 730.77 161.015Z" fill="#292929" stroke="#222222" stroke-width="0.8" stroke-linecap="round" stroke-linejoin="round"/>
<path d="M839.877 202.67C820.753 193.346 745.091 163.679 731.788 159.441C724.994 157.277 721.905 153.041 720.703 149.269C751.836 161.006 820.254 187.911 844.865 201.628C843.18 202.733 841.3 203.364 839.877 202.67Z" fill="white" stroke="#222222" stroke-width="0.8" stroke-linecap="round" stroke-linejoin="round"/>
<path d="M517.681 141.715C486.137 158.494 438.541 196.246 418.687 213.025C423.72 215.543 438.15 220.244 455.6 218.9C461.472 218.447 516.338 162.859 524.392 150.107C525.452 148.429 523.721 145.069 517.681 141.715Z" fill="#292929" stroke="#222222" stroke-width="0.8" stroke-linecap="round" stroke-linejoin="round"/>
<path d="M455.6 218.9C448.179 219.471 441.304 218.95 435.466 217.967C451.042 206.533 489.182 178.799 517.135 159.336C499.75 179.52 460.515 218.521 455.6 218.9Z" fill="white" stroke="#222222" stroke-width="0.8" stroke-linecap="round" stroke-linejoin="round"/>
<path d="M418.687 213.024C403.25 214.367 394.917 216.38 392.68 217.219C395.196 219.457 401.908 223.43 408.619 221.416C415.331 219.402 425.957 217.606 430.432 216.959C425.03 215.699 420.927 214.146 418.687 213.024Z" fill="#131313" stroke="#222222" stroke-width="0.8" stroke-linecap="round" stroke-linejoin="round"/>
<path d="M521.011 147.404C523.528 143.209 532.531 140.227 535.273 139.854C561.253 136.312 656.918 133.144 723.194 155.795" stroke="#222222" stroke-width="2" stroke-linecap="round" stroke-linejoin="round"/>
<path d="M708.958 338.868C708.523 341.369 707.95 343.83 707.28 346.219L387.392 350.613C386.707 347.062 385.888 343.41 384.923 339.707L709.785 334.673C709.45 336.202 709.177 337.608 708.958 338.868Z" fill="#292929" stroke="#222222" stroke-width="0.8" stroke-linecap="round" stroke-linejoin="round"/>
<path d="M708.959 338.868C708.762 339.996 708.538 341.115 708.29 342.224L386.888 348.096C386.602 346.722 386.295 345.335 385.969 343.937L708.959 338.868Z" fill="#6A6A6A" stroke="#222222" stroke-width="0.8" stroke-linecap="round" stroke-linejoin="round"/>
<path d="M693.018 289.372C675.776 313.514 654.148 330.02 646.038 335.663L701.408 334.805C703.925 302.218 730.77 276.787 736.643 274.27C738.601 273.431 738.601 271.195 736.643 270.916C719.025 270.916 705.602 271.753 693.018 289.372Z" fill="#1B1B1B" stroke="#222222" stroke-width="0.8" stroke-linecap="round" stroke-linejoin="round"/>
<path d="M125.059 305.316C120.026 305.316 120.865 319.577 125.898 319.577H180.623C180.085 321.38 179.717 323.085 179.59 324.606H127.432C128.38 326.779 129.656 328.806 130.932 328.806H226.086C229.429 316.43 234.539 303.932 241.999 293.131H146.033C143.762 294.137 141.721 294.902 140.161 295.249C138.205 295.683 136.196 296.599 134.288 297.733H191.336C190.135 299.583 188.519 302.264 186.87 305.316H125.059Z" fill="#292929" stroke="#222222" stroke-width="0.8" stroke-linecap="round" stroke-linejoin="round"/>
<path d="M209.792 328.806C211.806 319.414 219.02 305.314 222.376 299.438H219.859C216.783 304.755 209.96 318.072 207.275 328.806H209.792Z" fill="#838383" stroke="#222222" stroke-width="0.8" stroke-linecap="round" stroke-linejoin="round"/>
<path d="M186.869 305.315C188.519 302.264 190.134 299.583 191.335 297.733H198.885L194.691 298.599C188.65 307.995 185.462 318.733 184.623 322.928L188.818 324.606H179.59C179.717 323.085 180.085 321.38 180.623 319.577C182.107 314.606 185.965 306.988 186.869 305.315Z" fill="#838383" stroke="#222222" stroke-width="0.8" stroke-linecap="round" stroke-linejoin="round"/>
<path d="M222.376 299.438H219.859C217.174 304.079 211.635 314.814 208.484 324.607H188.819L184.624 322.929C185.463 318.734 188.651 307.996 194.691 298.6L198.886 297.734H224.054L222.376 299.438Z" fill="#484747" stroke="#222222" stroke-width="0.8" stroke-linecap="round" stroke-linejoin="round"/>
<rect x="137.205" y="309.066" width="39.4688" height="5.91147" rx="2.95574" fill="#838383" stroke="#222222" stroke-width="0.8" stroke-linecap="round" stroke-linejoin="round"/>
<path d="M132.61 319.577V305.315H149.389V319.577H132.61Z" fill="url(#paint22_linear_77_19838)" stroke="#222222" stroke-width="0.8" stroke-linecap="round" stroke-linejoin="round"/>
<path d="M196.37 236.523C172.041 240.463 165.329 268.961 165.329 282.664C165.329 285.176 169.02 287.693 170.363 287.693C174.278 275.392 184.96 247.936 196.37 236.523Z" fill="url(#paint23_linear_77_19838)" stroke="#222222" stroke-width="0.8" stroke-linecap="round" stroke-linejoin="round"/>
<path d="M165.397 280.143C165.931 270.118 169.624 255.47 179.554 245.781C179.566 245.769 179.578 245.758 179.59 245.746C179.578 245.758 179.566 245.77 179.554 245.781C175.538 249.733 167.128 270.824 165.397 280.143Z" fill="#363636"/>
<path d="M165.397 280.143C165.932 270.106 169.633 255.434 179.59 245.746C175.589 249.606 167.134 270.796 165.397 280.143Z" stroke="#222222" stroke-width="0.8" stroke-linecap="round" stroke-linejoin="round"/>
<path d="M170.363 287.693C169.793 287.693 168.8 287.24 167.846 286.526C170.642 277.407 177.913 257.156 184.624 249.102H187.146C179.54 262.04 173.188 278.814 170.363 287.693Z" fill="#363636" stroke="#222222" stroke-width="0.8" stroke-linecap="round" stroke-linejoin="round"/>
<path d="M524.393 159.336L465.667 222.256C462.312 225.612 625.624 224.214 697.213 223.934C715.67 223.934 760.972 224.579 781.106 218.9C813.825 209.672 765.167 187.631 734.965 175.276C698.052 160.175 629.259 151.786 562.145 151.786C531.272 151.786 529.426 154.302 524.393 159.336Z" stroke="#222222" stroke-width="0.8" stroke-linecap="round" stroke-linejoin="round"/>
<path d="M524.393 159.336L465.667 222.256C462.312 225.612 625.624 224.214 697.213 223.934C715.67 223.934 760.972 224.579 781.106 218.9C813.825 209.672 765.167 187.631 734.965 175.276C698.052 160.175 629.259 151.786 562.145 151.786C531.272 151.786 529.426 154.302 524.393 159.336Z" fill="#292929"/>
<path d="M526.909 167.725C533.62 159.672 543.128 156.54 547.043 155.98L552.077 159.336C601.074 159.336 637.936 162.48 666.172 167.117C665.501 169.315 663.096 173.472 661.977 175.276C628.42 163.531 640.165 218.061 640.165 218.879C593.771 219.204 541.55 219.44 510.13 219.151C511.249 212.356 512.815 198.43 510.13 197.088C507.446 195.746 503.254 195.969 501.493 196.249C512.185 184.461 522.951 172.475 526.909 167.725Z" fill="#D9D9D9"/>
<path d="M758.455 198.766C785.301 213.028 761.811 218.061 736.643 218.061C734.979 218.061 706.28 218.361 668.689 218.664L686.306 170.963C726.457 179.812 745.051 191.645 758.455 198.766Z" fill="#D9D9D9"/>
<path d="M526.909 167.725C533.62 159.672 543.128 156.54 547.043 155.98L552.077 159.336C601.074 159.336 637.936 162.48 666.172 167.117C665.501 169.315 663.096 173.472 661.977 175.276C628.42 163.531 640.165 218.061 640.165 218.879C593.771 219.204 541.55 219.44 510.13 219.151C511.249 212.356 512.815 198.43 510.13 197.088C507.446 195.746 503.254 195.969 501.493 196.249C512.185 184.461 522.951 172.475 526.909 167.725Z" stroke="#222222" stroke-width="0.8" stroke-linecap="round" stroke-linejoin="round"/>
<path d="M758.455 198.766C785.301 213.028 761.811 218.061 736.643 218.061C734.979 218.061 706.28 218.361 668.689 218.664L686.306 170.963C726.457 179.812 745.051 191.645 758.455 198.766Z" stroke="#222222" stroke-width="0.8" stroke-linecap="round" stroke-linejoin="round"/>
<path d="M526.909 167.725C533.62 159.672 543.128 156.54 547.043 155.98L552.077 159.336C601.074 159.336 637.936 162.48 666.172 167.117C665.501 169.315 663.096 173.472 661.977 175.276C628.42 163.531 640.165 218.061 640.165 218.879C593.771 219.204 541.55 219.44 510.13 219.151C511.249 212.356 512.815 198.43 510.13 197.088C507.446 195.746 503.254 195.969 501.493 196.249C512.185 184.461 522.951 172.475 526.909 167.725Z" fill="black" fill-opacity="0.2"/>
<path d="M758.455 198.766C785.301 213.028 761.811 218.061 736.643 218.061C734.979 218.061 706.28 218.361 668.689 218.664L686.306 170.963C726.457 179.812 745.051 191.645 758.455 198.766Z" fill="black" fill-opacity="0.2"/>
<path d="M562.144 151.785C531.271 151.785 529.426 154.302 524.392 159.336L501.859 183.478C590.738 186.307 769.335 192.122 772.691 192.755C761.236 186.346 746.706 180.079 734.965 175.276C698.052 160.175 629.259 151.785 562.144 151.785Z" fill="url(#paint24_linear_77_19838)" fill-opacity="0.8"/>
<path d="M548.83 152.595L522.688 222.871C525.167 222.886 527.699 222.899 530.278 222.91C530.952 221.242 546.862 175.234 554.733 152.439C552.595 152.475 550.633 152.527 548.83 152.595Z" fill="#D9D9D9"/>
<path d="M680.382 161.169L658.456 222.64L663.516 222.615L685.441 162.03C683.772 161.737 682.085 161.45 680.382 161.169Z" fill="#D9D9D9"/>
<path d="M548.83 152.595L522.688 222.871C525.167 222.886 527.699 222.899 530.278 222.91C530.952 221.242 546.862 175.234 554.733 152.439C552.595 152.475 550.633 152.527 548.83 152.595Z" stroke="#292929" stroke-linecap="round" stroke-linejoin="round"/>
<path d="M680.382 161.169L658.456 222.64L663.516 222.615L685.441 162.03C683.772 161.737 682.085 161.45 680.382 161.169Z" stroke="#292929" stroke-linecap="round" stroke-linejoin="round"/>
<path d="M473.217 212.189V223.395C474.648 223.476 476.266 223.551 478.056 223.621V217.222C478.4 218.621 480.264 221.417 484.962 221.417H499.224C501.461 221.417 506.774 219.404 506.774 211.35V203.8C506.774 201.842 504.593 197.927 499.224 197.927H484.962C482.445 197.927 477.411 199.605 477.411 206.316H476.573C474.559 206.316 473.217 209.672 473.217 212.189Z" fill="url(#paint25_linear_77_19838)" stroke="#222222" stroke-width="0.8" stroke-linecap="round" stroke-linejoin="round"/>
<path d="M465.666 222.256C464.828 223.654 459.794 226.451 446.371 226.451C429.592 226.451 415.923 227.681 411.975 247.424C410.297 255.813 411.975 327.123 417.008 339.21L606.608 336.272C613.878 336.298 630.601 331.15 639.326 310.344C650.232 284.337 660.844 254.082 661.138 253.297C663.655 246.585 667.85 231.815 662.816 224.099C583.523 224.51 462.776 225.146 465.666 222.256Z" stroke="#222222" stroke-width="0.8" stroke-linecap="round" stroke-linejoin="round"/>
<path d="M523.527 159.149C531.078 152.438 535.669 147.377 546.205 146.766C578.923 144.867 653.588 148.43 705.602 159.35C754.871 169.693 821.352 199.87 880.612 228.207M880.612 228.207C908.132 241.367 934.094 254.13 956.052 264.325C947.685 259.725 943.86 262.861 946.376 265.881C950.571 270.914 944.698 272.592 936.309 268.397C929.598 265.042 906.107 255.813 895.201 251.619C887.651 247.424 891.846 244.907 894.362 243.229C899.396 239.874 887.651 232.323 880.612 228.207Z" stroke="#222222" stroke-linecap="round" stroke-linejoin="round"/>
<path d="M942.182 217.223L884.295 216.383L854.933 215.988C867.738 221.981 878.069 227.143 884.295 230.645C890.168 233.949 898.389 240.545 894.362 243.229C891.846 244.907 887.651 247.424 895.201 251.619C906.107 255.813 929.598 265.042 936.309 268.397C944.698 272.592 950.571 270.914 946.376 265.881C943.86 262.861 948.054 259.662 956.052 264.325C947.215 258.33 935.183 250.268 932.115 246.585C928.759 242.558 924.564 234.785 947.215 232.323C978.088 228.967 990.84 207.994 985.806 207.994H954.766C951.41 209.336 944.978 214.706 942.182 217.223Z" fill="#626263" stroke="#222222" stroke-width="0.8" stroke-linecap="round" stroke-linejoin="round"/>
<path d="M954.766 207.994C951.41 209.336 944.978 214.706 942.182 217.223H960.638C969.028 217.223 973.726 212.021 979.095 207.994H954.766Z" fill="#070707" stroke="#222222" stroke-width="0.8" stroke-linecap="round" stroke-linejoin="round"/>
<path d="M947.215 232.323C978.088 228.967 990.84 207.994 985.806 207.994H984.128C964.833 227.29 930.436 228.129 909.463 227.29C892.684 226.618 918.971 254.136 936.309 268.397C944.698 272.592 950.571 270.914 946.376 265.881C943.859 262.861 948.054 259.662 956.052 264.325C947.215 258.33 935.183 250.268 932.114 246.585C928.759 242.558 924.564 234.785 947.215 232.323Z" fill="#070707" stroke="#222222" stroke-width="0.8" stroke-linecap="round" stroke-linejoin="round"/>
<path d="M895.201 251.619C887.651 247.424 891.846 244.907 894.362 243.23C899.396 239.874 887.651 232.323 880.612 228.207C906.838 240.748 931.651 252.929 952.93 262.871C953.886 263.229 954.928 263.707 956.052 264.325C955.02 263.846 953.979 263.361 952.93 262.871C946.772 260.566 944.198 263.267 946.376 265.881C950.571 270.914 944.699 272.592 936.309 268.398C929.598 265.042 906.108 255.814 895.201 251.619Z" fill="#2B2B2B"/>
<path d="M894.362 243.23C891.846 244.907 887.651 247.424 895.201 251.619C906.108 255.814 929.598 265.042 936.309 268.398C944.699 272.592 950.571 270.914 946.376 265.881C943.86 262.861 947.685 259.725 956.052 264.325C934.094 254.13 908.132 241.367 880.612 228.207C887.651 232.323 899.396 239.874 894.362 243.23Z" stroke="#222222" stroke-width="0.8" stroke-linecap="round" stroke-linejoin="round"/>
<path d="M203.92 370.751H220.698C220.499 357.785 222.341 340.195 227.808 322.928C224.771 324.271 223.217 326.284 222.376 328.804C220.978 332.998 217.511 343.902 214.826 353.969C212.141 364.036 206.437 369.351 203.92 370.751Z" fill="#838383" stroke="#222222" stroke-width="0.8" stroke-linecap="round" stroke-linejoin="round"/>
<path d="M642.283 248.263C642.283 249.957 641.339 251.526 639.744 252.685C638.15 253.845 635.927 254.575 633.454 254.575C630.981 254.575 628.759 253.845 627.164 252.685C625.569 251.526 624.626 249.957 624.626 248.263C624.626 246.569 625.569 245.001 627.164 243.841C628.759 242.681 630.981 241.952 633.454 241.952C635.927 241.952 638.15 242.681 639.744 243.841C641.339 245.001 642.283 246.569 642.283 248.263Z" fill="url(#paint26_radial_77_19838)" stroke="#222222" stroke-width="0.8" stroke-linecap="round" stroke-linejoin="round"/>
<path d="M641.004 249.941H623.387C621.709 250.78 614.998 253.297 614.998 248.263C614.998 243.518 620.87 246.026 623.387 247.424H641.004C643.521 244.908 645.199 244.069 651.911 244.069C658.622 244.069 659.461 254.136 650.233 254.136C642.85 254.136 641.004 251.339 641.004 249.941Z" fill="#1B1B1B" stroke="#222222" stroke-width="0.8" stroke-linecap="round" stroke-linejoin="round"/>
<path d="M296.169 484.538C296.169 486.06 295.799 487.348 295.059 488.402C294.352 489.439 293.355 490.3 292.069 490.986C290.783 491.671 289.224 492.207 287.391 492.591C285.59 492.959 283.597 493.235 281.41 493.419C279.224 493.603 276.877 493.712 274.369 493.745C271.893 493.779 269.337 493.795 266.7 493.795H252.328V500.619C252.328 501.104 252.199 501.547 251.942 501.948C251.717 502.333 251.219 502.525 250.447 502.525C249.515 502.525 248.904 502.341 248.614 501.974C248.357 501.589 248.229 501.137 248.229 500.619V475.507C248.229 475.256 248.261 475.072 248.325 474.955C248.421 474.822 248.566 474.73 248.759 474.679C248.952 474.629 249.193 474.604 249.482 474.604C249.804 474.587 250.206 474.579 250.688 474.579H266.7C269.626 474.579 272.375 474.621 274.948 474.704C277.552 474.788 279.947 474.964 282.134 475.231C284.32 475.482 286.282 475.833 288.018 476.285C289.754 476.737 291.217 477.339 292.407 478.091C293.629 478.827 294.561 479.722 295.204 480.775C295.847 481.829 296.169 483.083 296.169 484.538ZM292.069 484.538C292.069 482.799 291.555 481.386 290.526 480.299C289.529 479.212 287.986 478.367 285.896 477.765C283.838 477.163 281.218 476.762 278.034 476.561C274.851 476.343 271.073 476.235 266.7 476.235H252.328V492.24H266.7C271.073 492.24 274.851 492.173 278.034 492.039C281.25 491.889 283.886 491.554 285.944 491.036C288.034 490.501 289.577 489.723 290.574 488.703C291.571 487.683 292.069 486.294 292.069 484.538Z" fill="black"/>
<path d="M374.59 488.552C374.59 490.994 373.883 493.126 372.468 494.949C371.085 496.756 368.931 498.261 366.005 499.465C363.111 500.669 359.43 501.572 354.961 502.174C350.523 502.76 345.25 503.052 339.141 503.052C333.032 503.052 327.743 502.76 323.274 502.174C318.837 501.572 315.171 500.669 312.277 499.465C309.384 498.261 307.229 496.756 305.815 494.949C304.432 493.126 303.741 490.994 303.741 488.552C303.741 486.11 304.432 483.987 305.815 482.18C307.229 480.357 309.384 478.844 312.277 477.64C315.171 476.435 318.837 475.541 323.274 474.955C327.743 474.353 333.032 474.052 339.141 474.052C345.25 474.052 350.523 474.353 354.961 474.955C359.43 475.541 363.111 476.435 366.005 477.64C368.931 478.844 371.085 480.357 372.468 482.18C373.883 483.987 374.59 486.11 374.59 488.552ZM307.84 488.552C307.84 490.894 308.483 492.875 309.769 494.498C311.056 496.12 312.985 497.45 315.557 498.487C318.161 499.507 321.425 500.251 325.348 500.719C329.27 501.171 333.868 501.397 339.141 501.397C344.414 501.397 349.012 501.171 352.935 500.719C356.858 500.251 360.121 499.507 362.725 498.487C365.33 497.45 367.275 496.12 368.561 494.498C369.847 492.875 370.49 490.894 370.49 488.552C370.49 486.228 369.847 484.254 368.561 482.632C367.275 480.993 365.33 479.663 362.725 478.643C360.121 477.606 356.858 476.862 352.935 476.41C349.012 475.942 344.414 475.708 339.141 475.708C333.868 475.708 329.27 475.942 325.348 476.41C321.425 476.862 318.161 477.606 315.557 478.643C312.985 479.663 311.056 480.993 309.769 482.632C308.483 484.254 307.84 486.228 307.84 488.552Z" fill="black"/>
<path d="M435.6 483.259C435.6 484.279 435.311 485.174 434.732 485.943C434.153 486.713 433.366 487.382 432.369 487.95C431.404 488.519 430.247 488.995 428.896 489.38C427.578 489.765 426.163 490.083 424.652 490.333C423.141 490.568 421.566 490.743 419.926 490.86C418.318 490.977 416.743 491.053 415.199 491.086L432.948 500.794C433.237 500.945 433.43 501.104 433.526 501.271C433.655 501.422 433.735 501.564 433.768 501.698C433.768 501.932 433.607 502.132 433.285 502.3C432.996 502.45 432.61 502.525 432.128 502.525C431.774 502.525 431.388 502.484 430.97 502.4C430.584 502.316 430.199 502.157 429.813 501.923L410.473 491.186H392.435V500.619C392.435 500.87 392.403 501.112 392.338 501.346C392.306 501.564 392.226 501.764 392.097 501.948C391.969 502.116 391.776 502.258 391.519 502.375C391.293 502.475 390.988 502.525 390.602 502.525C389.67 502.525 389.059 502.341 388.769 501.974C388.48 501.589 388.335 501.137 388.335 500.619V475.507C388.335 475.256 388.335 475.072 388.335 474.955C388.368 474.822 388.432 474.73 388.528 474.679C388.625 474.629 388.785 474.604 389.011 474.604C389.268 474.587 389.638 474.579 390.12 474.579H404.106C407.097 474.579 409.942 474.596 412.643 474.629C415.376 474.663 417.9 474.771 420.215 474.955C422.562 475.123 424.684 475.39 426.581 475.758C428.478 476.109 430.086 476.611 431.404 477.263C432.755 477.899 433.784 478.702 434.491 479.672C435.231 480.642 435.6 481.837 435.6 483.259ZM431.501 483.259C431.501 481.603 430.906 480.307 429.716 479.371C428.559 478.417 426.823 477.715 424.508 477.263C422.192 476.795 419.331 476.511 415.923 476.41C412.514 476.293 408.576 476.235 404.106 476.235H392.435V489.531H410.521C413.318 489.531 415.987 489.464 418.527 489.33C421.067 489.196 423.286 488.912 425.183 488.477C427.112 488.025 428.639 487.39 429.765 486.57C430.922 485.751 431.501 484.647 431.501 483.259Z" fill="black"/>
<path d="M509.97 494.724C509.97 495.794 509.601 496.747 508.861 497.583C508.121 498.403 507.093 499.122 505.774 499.741C504.456 500.343 502.881 500.861 501.048 501.296C499.247 501.714 497.286 502.057 495.164 502.325C493.042 502.576 490.775 502.751 488.363 502.852C485.984 502.969 483.573 503.027 481.129 503.027C477.689 503.027 474.264 502.935 470.856 502.751C467.448 502.567 464.265 502.341 461.307 502.074C458.349 501.79 455.728 501.489 453.445 501.171C451.195 500.853 449.49 500.552 448.333 500.268C447.883 500.151 447.545 500.008 447.32 499.841C447.127 499.657 447.031 499.473 447.031 499.289C447.031 499.089 447.127 498.921 447.32 498.788C447.545 498.637 447.867 498.562 448.285 498.562C448.478 498.562 448.703 498.587 448.96 498.637C450.214 498.905 452.014 499.197 454.362 499.515C456.709 499.833 459.361 500.134 462.319 500.418C465.31 500.686 468.477 500.912 471.821 501.095C475.197 501.279 478.541 501.371 481.852 501.371C485.068 501.371 488.122 501.263 491.016 501.045C493.91 500.828 496.45 500.46 498.636 499.942C500.855 499.423 502.607 498.737 503.893 497.884C505.212 497.031 505.871 495.978 505.871 494.724C505.871 493.67 505.308 492.809 504.183 492.14C503.09 491.454 501.594 490.91 499.697 490.509C497.8 490.091 495.582 489.781 493.042 489.581C490.502 489.363 487.801 489.204 484.939 489.104C482.11 488.987 479.184 488.903 476.161 488.853C473.139 488.786 470.197 488.686 467.335 488.552C464.506 488.418 461.821 488.226 459.281 487.975C456.741 487.724 454.522 487.356 452.625 486.871C450.728 486.386 449.217 485.759 448.092 484.99C446.999 484.221 446.452 483.251 446.452 482.08C446.452 481.01 446.838 480.065 447.609 479.245C448.381 478.426 449.442 477.723 450.793 477.138C452.143 476.536 453.735 476.042 455.567 475.658C457.432 475.256 459.442 474.939 461.596 474.704C463.782 474.47 466.065 474.303 468.445 474.203C470.856 474.102 473.268 474.052 475.679 474.052C478.669 474.052 481.611 474.128 484.505 474.278C487.399 474.412 490.116 474.604 492.656 474.855C495.196 475.089 497.479 475.357 499.504 475.658C501.53 475.942 503.154 476.235 504.376 476.536C504.633 476.603 504.826 476.703 504.954 476.837C505.083 476.954 505.147 477.079 505.147 477.213C505.147 477.447 504.987 477.665 504.665 477.865C504.376 478.066 503.958 478.166 503.411 478.166C503.09 478.166 502.816 478.133 502.591 478.066C500.887 477.698 498.99 477.372 496.9 477.088C494.842 476.787 492.656 476.536 490.341 476.335C488.026 476.134 485.63 475.984 483.155 475.884C480.711 475.766 478.283 475.708 475.872 475.708C472.528 475.708 469.329 475.808 466.274 476.009C463.22 476.21 460.519 476.553 458.172 477.038C455.857 477.506 454.008 478.141 452.625 478.944C451.243 479.73 450.551 480.725 450.551 481.929C450.551 482.849 451.098 483.602 452.191 484.187C453.317 484.756 454.828 485.216 456.725 485.567C458.622 485.918 460.84 486.186 463.381 486.37C465.921 486.537 468.605 486.671 471.435 486.771C474.296 486.871 477.238 486.963 480.261 487.047C483.283 487.114 486.209 487.239 489.039 487.423C491.9 487.591 494.601 487.833 497.141 488.151C499.681 488.452 501.9 488.878 503.797 489.43C505.694 489.982 507.189 490.693 508.282 491.563C509.408 492.416 509.97 493.469 509.97 494.724Z" fill="black"/>
<path d="M521.352 488.552C521.352 485.943 522.108 483.727 523.619 481.904C525.163 480.065 527.445 478.568 530.468 477.414C533.49 476.243 537.252 475.39 541.754 474.855C546.287 474.32 551.544 474.052 557.525 474.052C561.705 474.052 565.756 474.253 569.678 474.654C573.601 475.039 577.588 475.666 581.639 476.536C582.154 476.653 582.524 476.803 582.749 476.987C582.974 477.155 583.086 477.322 583.086 477.489C583.086 477.69 582.942 477.865 582.652 478.016C582.363 478.166 581.993 478.242 581.543 478.242C581.414 478.242 581.109 478.2 580.627 478.116C576.929 477.313 573.103 476.711 569.148 476.31C565.193 475.909 561.319 475.708 557.525 475.708C551.801 475.708 546.914 475.959 542.863 476.461C538.812 476.946 535.484 477.715 532.879 478.769C530.307 479.805 528.426 481.135 527.236 482.757C526.047 484.363 525.452 486.294 525.452 488.552C525.452 490.81 526.047 492.75 527.236 494.372C528.426 495.978 530.307 497.307 532.879 498.361C535.484 499.398 538.812 500.167 542.863 500.669C546.914 501.154 551.801 501.397 557.525 501.397C561.319 501.397 565.193 501.196 569.148 500.794C573.103 500.393 576.929 499.791 580.627 498.988C580.884 498.921 581.173 498.888 581.495 498.888C581.977 498.888 582.363 498.963 582.652 499.114C582.974 499.264 583.135 499.44 583.135 499.64C583.135 499.808 583.022 499.975 582.797 500.142C582.572 500.309 582.186 500.452 581.639 500.569C577.556 501.438 573.553 502.074 569.63 502.475C565.74 502.86 561.705 503.052 557.525 503.052C551.544 503.052 546.287 502.785 541.754 502.249C537.252 501.714 533.49 500.87 530.468 499.716C527.445 498.545 525.163 497.048 523.619 495.225C522.108 493.386 521.352 491.161 521.352 488.552Z" fill="black"/>
<path d="M594.951 476.335C594.951 476.118 594.967 475.909 594.999 475.708C595.063 475.491 595.176 475.298 595.337 475.131C595.529 474.964 595.771 474.83 596.06 474.73C596.382 474.629 596.783 474.579 597.266 474.579C597.619 474.579 597.909 474.638 598.134 474.755C598.359 474.855 598.536 474.989 598.664 475.156C598.825 475.323 598.922 475.516 598.954 475.733C599.018 475.934 599.05 476.134 599.05 476.335V487.323H641.733V476.335C641.733 476.118 641.749 475.909 641.782 475.708C641.814 475.491 641.894 475.298 642.023 475.131C642.184 474.964 642.393 474.83 642.65 474.73C642.907 474.629 643.277 474.579 643.759 474.579C644.241 474.579 644.611 474.629 644.868 474.73C645.158 474.83 645.367 474.964 645.495 475.131C645.656 475.298 645.753 475.491 645.785 475.708C645.817 475.909 645.833 476.118 645.833 476.335V500.769C645.833 500.987 645.817 501.204 645.785 501.422C645.753 501.622 645.656 501.806 645.495 501.974C645.367 502.141 645.174 502.275 644.917 502.375C644.659 502.475 644.29 502.525 643.807 502.525C643.325 502.525 642.939 502.475 642.65 502.375C642.393 502.275 642.184 502.141 642.023 501.974C641.894 501.806 641.814 501.622 641.782 501.422C641.749 501.204 641.733 500.987 641.733 500.769V488.878H599.05V500.769C599.05 500.97 599.018 501.179 598.954 501.397C598.889 501.597 598.777 501.781 598.616 501.948C598.488 502.116 598.295 502.258 598.037 502.375C597.812 502.475 597.523 502.525 597.169 502.525C596.687 502.525 596.285 502.475 595.964 502.375C595.674 502.275 595.449 502.141 595.288 501.974C595.16 501.806 595.063 501.622 594.999 501.422C594.967 501.204 594.951 500.987 594.951 500.769V476.335Z" fill="black"/>
<path d="M710.798 501.647C710.798 501.898 710.718 502.082 710.557 502.199C710.396 502.316 710.171 502.4 709.882 502.45C709.625 502.5 709.303 502.525 708.917 502.525C708.531 502.525 708.097 502.525 707.615 502.525H662.569C662.247 502.525 662.006 502.517 661.845 502.5C661.684 502.484 661.556 502.442 661.459 502.375C661.395 502.308 661.347 502.224 661.315 502.124C661.315 502.007 661.315 501.848 661.315 501.647V475.758C661.315 475.507 661.315 475.307 661.315 475.156C661.347 475.006 661.411 474.888 661.508 474.805C661.604 474.721 661.765 474.663 661.99 474.629C662.247 474.596 662.617 474.579 663.099 474.579H707.133C707.615 474.579 708.065 474.579 708.483 474.579C708.901 474.579 709.271 474.604 709.592 474.654C709.946 474.704 710.219 474.788 710.412 474.905C710.605 475.022 710.702 475.206 710.702 475.457C710.702 475.658 710.605 475.817 710.412 475.934C710.219 476.034 709.946 476.109 709.592 476.16C709.271 476.21 708.901 476.235 708.483 476.235C708.065 476.235 707.615 476.235 707.133 476.235H665.414V487.223H706.892C707.599 487.223 708.194 487.273 708.676 487.373C709.158 487.474 709.399 487.691 709.399 488.025C709.399 488.393 709.19 488.636 708.772 488.753C708.387 488.87 707.872 488.929 707.229 488.929H665.414V500.87H707.229C707.711 500.87 708.162 500.87 708.58 500.87C708.998 500.87 709.367 500.895 709.689 500.945C710.043 500.995 710.316 501.079 710.509 501.196C710.702 501.296 710.798 501.447 710.798 501.647Z" fill="black"/>
<path d="M783.335 488.552C783.335 491.178 783.014 493.411 782.371 495.25C781.76 497.073 780.635 498.562 778.995 499.716C777.387 500.87 775.168 501.714 772.339 502.249C769.51 502.768 765.908 503.027 761.536 503.027C759.639 503.027 757.677 502.952 755.652 502.801C753.626 502.668 751.777 502.492 750.105 502.275C748.465 502.04 747.115 501.773 746.054 501.472C744.993 501.171 744.462 500.87 744.462 500.569C744.462 500.385 744.607 500.234 744.896 500.117C745.218 499.983 745.652 499.916 746.199 499.916C746.52 499.916 746.906 499.95 747.356 500.017C747.806 500.067 748.289 500.134 748.803 500.217C749.317 500.301 749.832 500.385 750.346 500.468C750.893 500.552 751.407 500.619 751.89 500.669C753.24 500.82 754.735 500.962 756.375 501.095C758.047 501.229 759.767 501.296 761.536 501.296C764.429 501.296 766.986 501.179 769.204 500.945C771.455 500.711 773.352 500.184 774.895 499.365C776.439 498.528 777.612 497.299 778.416 495.677C779.22 494.055 779.622 491.864 779.622 489.104C779.075 489.238 778.384 489.38 777.548 489.531C776.744 489.664 775.715 489.79 774.461 489.907C773.207 490.024 771.712 490.124 769.976 490.208C768.24 490.275 766.166 490.308 763.754 490.308C760.185 490.308 757.05 490.191 754.349 489.957C751.649 489.706 749.382 489.28 747.549 488.678C745.748 488.059 744.382 487.214 743.45 486.144C742.549 485.074 742.099 483.711 742.099 482.055C742.099 481.035 742.453 480.048 743.16 479.095C743.9 478.125 745.089 477.272 746.729 476.536C748.401 475.8 750.571 475.206 753.24 474.755C755.909 474.303 759.205 474.077 763.127 474.077C766.857 474.077 770.008 474.328 772.58 474.83C775.152 475.315 777.226 476.126 778.802 477.263C780.409 478.401 781.567 479.897 782.274 481.754C782.982 483.593 783.335 485.86 783.335 488.552ZM779.622 487.775C779.622 485.5 779.332 483.593 778.754 482.055C778.175 480.516 777.226 479.287 775.908 478.367C774.59 477.447 772.87 476.795 770.747 476.41C768.625 476.009 766.021 475.808 762.934 475.808C759.558 475.808 756.761 475.992 754.542 476.36C752.324 476.728 750.555 477.213 749.237 477.815C747.951 478.417 747.051 479.103 746.536 479.872C746.022 480.642 745.765 481.436 745.765 482.256C745.765 483.677 746.134 484.806 746.874 485.642C747.613 486.462 748.723 487.089 750.202 487.524C751.713 487.959 753.594 488.243 755.845 488.377C758.095 488.494 760.732 488.552 763.754 488.552C765.78 488.552 767.596 488.536 769.204 488.502C770.812 488.452 772.243 488.393 773.497 488.326C774.783 488.243 775.924 488.159 776.921 488.076C777.918 487.975 778.818 487.875 779.622 487.775Z" fill="black"/>
<path d="M801.856 488.226C801.277 488.226 800.843 488.142 800.553 487.975C800.296 487.808 800.167 487.624 800.167 487.423C800.167 487.223 800.296 487.039 800.553 486.871C800.843 486.704 801.277 486.621 801.856 486.621H808.704C811.791 486.621 814.347 486.462 816.373 486.144C818.43 485.826 820.07 485.416 821.292 484.915C822.514 484.396 823.366 483.811 823.848 483.159C824.363 482.506 824.62 481.846 824.62 481.177C824.62 480.541 824.427 479.906 824.041 479.27C823.687 478.618 822.98 478.041 821.919 477.539C820.858 477.021 819.363 476.603 817.434 476.285C815.504 475.967 812.98 475.808 809.862 475.808C808.093 475.808 806.341 475.875 804.605 476.009C802.868 476.126 801.309 476.26 799.926 476.41C798.544 476.561 797.418 476.703 796.55 476.837C795.714 476.954 795.296 477.021 795.296 477.038C794.718 477.121 794.3 477.163 794.042 477.163C793.496 477.163 793.062 477.104 792.74 476.987C792.451 476.854 792.306 476.695 792.306 476.511C792.306 476.193 792.853 475.884 793.946 475.583C795.071 475.281 796.47 475.022 798.142 474.805C799.846 474.571 801.695 474.387 803.688 474.253C805.682 474.119 807.579 474.052 809.379 474.052C813.238 474.052 816.373 474.261 818.784 474.679C821.196 475.098 823.093 475.649 824.475 476.335C825.858 477.004 826.79 477.765 827.272 478.618C827.787 479.471 828.044 480.332 828.044 481.202C828.044 481.787 827.851 482.414 827.465 483.083C827.08 483.736 826.388 484.363 825.392 484.965C824.427 485.55 823.109 486.069 821.437 486.52C819.797 486.955 817.707 487.239 815.167 487.373C817.739 487.557 819.926 487.867 821.726 488.301C823.527 488.719 824.99 489.255 826.115 489.907C827.24 490.542 828.06 491.278 828.575 492.115C829.089 492.934 829.346 493.837 829.346 494.824C829.346 495.978 829.009 497.057 828.334 498.06C827.69 499.063 826.597 499.942 825.054 500.694C823.511 501.43 821.453 502.007 818.881 502.425C816.34 502.843 813.173 503.052 809.379 503.052C807.482 503.052 805.521 502.977 803.495 502.826C801.47 502.693 799.621 502.517 797.949 502.3C796.309 502.066 794.959 501.798 793.898 501.497C792.837 501.196 792.306 500.895 792.306 500.594C792.306 500.41 792.451 500.259 792.74 500.142C793.062 500.008 793.496 499.942 794.042 499.942C794.364 499.942 794.75 499.975 795.2 500.042C795.65 500.092 796.132 500.159 796.647 500.243C797.161 500.326 797.676 500.41 798.19 500.493C798.737 500.577 799.251 500.644 799.733 500.694C801.084 500.845 802.579 500.987 804.219 501.121C805.891 501.254 807.611 501.321 809.379 501.321C812.691 501.321 815.424 501.162 817.578 500.845C819.765 500.51 821.485 500.05 822.739 499.465C824.025 498.88 824.909 498.185 825.392 497.383C825.906 496.563 826.163 495.66 826.163 494.673C826.163 493.837 825.89 493.034 825.343 492.265C824.829 491.479 823.912 490.793 822.594 490.208C821.276 489.606 819.491 489.129 817.241 488.778C814.99 488.41 812.144 488.226 808.704 488.226H801.856Z" fill="black"/>
<path d="M876.563 488.552C876.563 486.378 876.306 484.488 875.791 482.883C875.309 481.26 874.409 479.922 873.091 478.869C871.804 477.798 870.02 477.004 867.737 476.486C865.486 475.967 862.609 475.708 859.104 475.708C855.631 475.708 852.77 475.967 850.519 476.486C848.268 477.004 846.484 477.798 845.166 478.869C843.847 479.922 842.931 481.26 842.417 482.883C841.902 484.488 841.645 486.378 841.645 488.552C841.645 490.743 841.902 492.641 842.417 494.247C842.931 495.852 843.847 497.19 845.166 498.261C846.484 499.314 848.268 500.1 850.519 500.619C852.77 501.137 855.631 501.397 859.104 501.397C862.609 501.397 865.486 501.137 867.737 500.619C870.02 500.1 871.804 499.314 873.091 498.261C874.409 497.19 875.309 495.852 875.791 494.247C876.306 492.641 876.563 490.743 876.563 488.552ZM837.979 488.552C837.979 486.378 838.253 484.396 838.799 482.607C839.378 480.817 840.439 479.295 841.982 478.041C843.526 476.77 845.664 475.792 848.397 475.106C851.162 474.403 854.731 474.052 859.104 474.052C863.477 474.052 867.03 474.403 869.763 475.106C872.528 475.792 874.682 476.77 876.225 478.041C877.769 479.295 878.814 480.817 879.36 482.607C879.939 484.396 880.229 486.378 880.229 488.552C880.229 490.743 879.939 492.733 879.36 494.523C878.814 496.296 877.769 497.818 876.225 499.089C874.682 500.343 872.528 501.321 869.763 502.024C867.03 502.709 863.477 503.052 859.104 503.052C854.731 503.052 851.162 502.709 848.397 502.024C845.664 501.321 843.526 500.343 841.982 499.089C840.439 497.818 839.378 496.296 838.799 494.523C838.253 492.733 837.979 490.743 837.979 488.552Z" fill="black"/>
<defs>
<linearGradient id="paint0_linear_77_19838" x1="275.749" y1="285.038" x2="348.855" y2="357.15" gradientUnits="userSpaceOnUse">
<stop stop-color="#CACACA"/>
<stop offset="0.23522" stop-color="#B5B4B4"/>
<stop offset="0.544396" stop-color="white"/>
<stop offset="1" stop-color="#797979"/>
</linearGradient>
<linearGradient id="paint1_linear_77_19838" x1="303.32" y1="328.798" x2="303.32" y2="277.791" gradientUnits="userSpaceOnUse">
<stop offset="0.30549"/>
<stop offset="0.555197" stop-color="#2F2F2F"/>
<stop offset="1" stop-color="#686868"/>
</linearGradient>
<linearGradient id="paint2_linear_77_19838" x1="303.594" y1="329.073" x2="352.373" y2="314.16" gradientUnits="userSpaceOnUse">
<stop offset="0.30549"/>
<stop offset="0.555197" stop-color="#2F2F2F"/>
<stop offset="1" stop-color="#686868"/>
</linearGradient>
<linearGradient id="paint3_linear_77_19838" x1="302.64" y1="329.073" x2="253.862" y2="314.16" gradientUnits="userSpaceOnUse">
<stop offset="0.30549"/>
<stop offset="0.555197" stop-color="#2F2F2F"/>
<stop offset="1" stop-color="#686868"/>
</linearGradient>
<linearGradient id="paint4_linear_77_19838" x1="304.924" y1="328.903" x2="270.696" y2="369.584" gradientUnits="userSpaceOnUse">
<stop offset="0.30549"/>
<stop offset="0.555197" stop-color="#2F2F2F"/>
<stop offset="1" stop-color="#686868"/>
</linearGradient>
<linearGradient id="paint5_linear_77_19838" x1="302.575" y1="328.903" x2="336.803" y2="369.584" gradientUnits="userSpaceOnUse">
<stop offset="0.30549"/>
<stop offset="0.555197" stop-color="#2F2F2F"/>
<stop offset="1" stop-color="#686868"/>
</linearGradient>
<linearGradient id="paint6_linear_77_19838" x1="277.431" y1="289.524" x2="343.039" y2="354.24" gradientUnits="userSpaceOnUse">
<stop stop-color="#A8A8A8"/>
<stop offset="0.23522" stop-color="#B5B4B4"/>
<stop offset="0.544396" stop-color="white"/>
<stop offset="1" stop-color="#878787"/>
</linearGradient>
<linearGradient id="paint7_linear_77_19838" x1="762.328" y1="285.038" x2="835.434" y2="357.15" gradientUnits="userSpaceOnUse">
<stop stop-color="#CACACA"/>
<stop offset="0.23522" stop-color="#B5B4B4"/>
<stop offset="0.544396" stop-color="white"/>
<stop offset="1" stop-color="#797979"/>
</linearGradient>
<linearGradient id="paint8_linear_77_19838" x1="789.898" y1="328.799" x2="789.898" y2="277.791" gradientUnits="userSpaceOnUse">
<stop offset="0.30549"/>
<stop offset="0.555197" stop-color="#2F2F2F"/>
<stop offset="1" stop-color="#686868"/>
</linearGradient>
<linearGradient id="paint9_linear_77_19838" x1="790.173" y1="329.073" x2="838.952" y2="314.16" gradientUnits="userSpaceOnUse">
<stop offset="0.30549"/>
<stop offset="0.555197" stop-color="#2F2F2F"/>
<stop offset="1" stop-color="#686868"/>
</linearGradient>
<linearGradient id="paint10_linear_77_19838" x1="789.22" y1="329.073" x2="740.442" y2="314.16" gradientUnits="userSpaceOnUse">
<stop offset="0.30549"/>
<stop offset="0.555197" stop-color="#2F2F2F"/>
<stop offset="1" stop-color="#686868"/>
</linearGradient>
<linearGradient id="paint11_linear_77_19838" x1="791.503" y1="328.903" x2="757.275" y2="369.584" gradientUnits="userSpaceOnUse">
<stop offset="0.30549"/>
<stop offset="0.555197" stop-color="#2F2F2F"/>
<stop offset="1" stop-color="#686868"/>
</linearGradient>
<linearGradient id="paint12_linear_77_19838" x1="789.155" y1="328.903" x2="823.382" y2="369.584" gradientUnits="userSpaceOnUse">
<stop offset="0.30549"/>
<stop offset="0.555197" stop-color="#2F2F2F"/>
<stop offset="1" stop-color="#686868"/>
</linearGradient>
<linearGradient id="paint13_linear_77_19838" x1="764.012" y1="289.524" x2="829.62" y2="354.24" gradientUnits="userSpaceOnUse">
<stop stop-color="#A8A8A8"/>
<stop offset="0.23522" stop-color="#B5B4B4"/>
<stop offset="0.544396" stop-color="white"/>
<stop offset="1" stop-color="#878787"/>
</linearGradient>
<linearGradient id="paint14_linear_77_19838" x1="565.068" y1="130.517" x2="564.527" y2="331.319" gradientUnits="userSpaceOnUse">
<stop stop-color="#E0E0E0"/>
<stop offset="0.501863" stop-color="#D9D9D9"/>
<stop offset="0.579727" stop-color="white"/>
<stop offset="0.650482" stop-color="white"/>
<stop offset="0.726812" stop-color="white"/>
<stop offset="0.904265" stop-color="#AAA9A9"/>
<stop offset="1" stop-color="#8A8A8A"/>
</linearGradient>
<linearGradient id="paint15_linear_77_19838" x1="396.035" y1="212.949" x2="396.035" y2="225.65" gradientUnits="userSpaceOnUse">
<stop stop-color="#A3A3A3"/>
<stop offset="0.803045" stop-color="#A3A3A3"/>
<stop offset="1" stop-color="#2C2A2A"/>
</linearGradient>
<linearGradient id="paint16_linear_77_19838" x1="946.376" y1="280.143" x2="968.162" y2="284.991" gradientUnits="userSpaceOnUse">
<stop stop-color="#B55420"/>
<stop offset="0.567708" stop-color="#F49969"/>
<stop offset="1" stop-color="#F1854B"/>
</linearGradient>
<linearGradient id="paint17_linear_77_19838" x1="953.927" y1="294.404" x2="953.927" y2="352.974" gradientUnits="userSpaceOnUse">
<stop stop-color="#292929"/>
<stop offset="1" stop-color="#1C1B1B"/>
</linearGradient>
<linearGradient id="paint18_linear_77_19838" x1="979.095" y1="294.404" x2="1007.62" y2="328.801" gradientUnits="userSpaceOnUse">
<stop stop-color="#212020"/>
<stop offset="1"/>
</linearGradient>
<linearGradient id="paint19_linear_77_19838" x1="970.287" y1="296.082" x2="970.287" y2="331.318" gradientUnits="userSpaceOnUse">
<stop stop-color="#E0E0E0"/>
<stop offset="1" stop-color="#E0E0E0" stop-opacity="0"/>
</linearGradient>
<linearGradient id="paint20_linear_77_19838" x1="970.287" y1="296.082" x2="970.287" y2="331.318" gradientUnits="userSpaceOnUse">
<stop stop-color="#E0E0E0"/>
<stop offset="1" stop-color="#E0E0E0" stop-opacity="0"/>
</linearGradient>
<linearGradient id="paint21_linear_77_19838" x1="909.347" y1="333.834" x2="909.347" y2="361.97" gradientUnits="userSpaceOnUse">
<stop stop-color="#5C5C5C"/>
<stop offset="0.9999" stop-color="#070707"/>
<stop offset="1" stop-color="#5C5C5C" stop-opacity="0"/>
</linearGradient>
<linearGradient id="paint22_linear_77_19838" x1="141" y1="305.315" x2="141" y2="319.577" gradientUnits="userSpaceOnUse">
<stop stop-color="#F3722D"/>
<stop offset="1" stop-color="#FF945A"/>
</linearGradient>
<linearGradient id="paint23_linear_77_19838" x1="180.849" y1="236.523" x2="180.849" y2="287.693" gradientUnits="userSpaceOnUse">
<stop stop-color="#DEDEDE"/>
<stop offset="0.526042" stop-color="#D9D9D9"/>
<stop offset="1" stop-color="#818181"/>
</linearGradient>
<linearGradient id="paint24_linear_77_19838" x1="637.275" y1="151.785" x2="637.275" y2="192.755" gradientUnits="userSpaceOnUse">
<stop stop-color="#868686" stop-opacity="0.41"/>
<stop offset="1" stop-color="#D9D9D9"/>
</linearGradient>
<linearGradient id="paint25_linear_77_19838" x1="489.995" y1="197.927" x2="491.84" y2="223.867" gradientUnits="userSpaceOnUse">
<stop stop-color="#E0E0E0"/>
<stop offset="0.396958" stop-color="white"/>
<stop offset="0.52784" stop-color="white"/>
<stop offset="0.648306" stop-color="#CECECE"/>
<stop offset="0.786803" stop-color="#949494"/>
<stop offset="1" stop-color="#8A8A8A"/>
</linearGradient>
<radialGradient id="paint26_radial_77_19838" cx="0" cy="0" r="1" gradientUnits="userSpaceOnUse" gradientTransform="translate(633.454 246.585) rotate(90) scale(8.38934 11.5353)">
<stop stop-color="#4B4B4B"/>
<stop offset="0.161669" stop-color="#807E7E"/>
<stop offset="0.528916"/>
<stop offset="1" stop-color="#B5B5B5"/>
</radialGradient>
</defs>
</svg>
