<svg width="1440" height="635" viewBox="0 0 1440 635" fill="none" xmlns="http://www.w3.org/2000/svg">
<g clip-path="url(#clip0_59_8989)">
<rect width="1440" height="635" fill="black"/>
<g filter="url(#filter0_ii_59_8989)">
<path d="M1220 318C1220 594.142 996.142 818 720 818C443.858 818 220 594.142 220 318C220 41.8576 443.858 -182 720 -182C996.142 -182 1220 41.8576 1220 318ZM272.751 318C272.751 565.009 472.991 765.249 720 765.249C967.009 765.249 1167.25 565.009 1167.25 318C1167.25 70.9913 967.009 -129.249 720 -129.249C472.991 -129.249 272.751 70.9913 272.751 318Z" fill="url(#paint0_radial_59_8989)" fill-opacity="0.45"/>
</g>
<g filter="url(#filter1_ii_59_8989)">
<path d="M1070 318C1070 511.3 913.3 668 720 668C526.7 668 370 511.3 370 318C370 124.7 526.7 -32 720 -32C913.3 -32 1070 124.7 1070 318ZM426.761 318C426.761 479.951 558.049 611.239 720 611.239C881.951 611.239 1013.24 479.951 1013.24 318C1013.24 156.049 881.951 24.7613 720 24.7613C558.049 24.7613 426.761 156.049 426.761 318Z" fill="url(#paint1_radial_59_8989)" fill-opacity="0.45"/>
</g>
</g>
<defs>
<filter id="filter0_ii_59_8989" x="220" y="-183" width="1000" height="1002" filterUnits="userSpaceOnUse" color-interpolation-filters="sRGB">
<feFlood flood-opacity="0" result="BackgroundImageFix"/>
<feBlend mode="normal" in="SourceGraphic" in2="BackgroundImageFix" result="shape"/>
<feColorMatrix in="SourceAlpha" type="matrix" values="0 0 0 0 0 0 0 0 0 0 0 0 0 0 0 0 0 0 127 0" result="hardAlpha"/>
<feOffset dy="-1"/>
<feGaussianBlur stdDeviation="1"/>
<feComposite in2="hardAlpha" operator="arithmetic" k2="-1" k3="1"/>
<feColorMatrix type="matrix" values="0 0 0 0 0 0 0 0 0 0 0 0 0 0 0 0 0 0 0.02 0"/>
<feBlend mode="normal" in2="shape" result="effect1_innerShadow_59_8989"/>
<feColorMatrix in="SourceAlpha" type="matrix" values="0 0 0 0 0 0 0 0 0 0 0 0 0 0 0 0 0 0 127 0" result="hardAlpha"/>
<feMorphology radius="1" operator="dilate" in="SourceAlpha" result="effect2_innerShadow_59_8989"/>
<feOffset dy="1"/>
<feGaussianBlur stdDeviation="2"/>
<feComposite in2="hardAlpha" operator="arithmetic" k2="-1" k3="1"/>
<feColorMatrix type="matrix" values="0 0 0 0 0 0 0 0 0 0 0 0 0 0 0 0 0 0 0.02 0"/>
<feBlend mode="normal" in2="effect1_innerShadow_59_8989" result="effect2_innerShadow_59_8989"/>
</filter>
<filter id="filter1_ii_59_8989" x="370" y="-33" width="700" height="702" filterUnits="userSpaceOnUse" color-interpolation-filters="sRGB">
<feFlood flood-opacity="0" result="BackgroundImageFix"/>
<feBlend mode="normal" in="SourceGraphic" in2="BackgroundImageFix" result="shape"/>
<feColorMatrix in="SourceAlpha" type="matrix" values="0 0 0 0 0 0 0 0 0 0 0 0 0 0 0 0 0 0 127 0" result="hardAlpha"/>
<feOffset dy="-1"/>
<feGaussianBlur stdDeviation="1"/>
<feComposite in2="hardAlpha" operator="arithmetic" k2="-1" k3="1"/>
<feColorMatrix type="matrix" values="0 0 0 0 0 0 0 0 0 0 0 0 0 0 0 0 0 0 0.02 0"/>
<feBlend mode="normal" in2="shape" result="effect1_innerShadow_59_8989"/>
<feColorMatrix in="SourceAlpha" type="matrix" values="0 0 0 0 0 0 0 0 0 0 0 0 0 0 0 0 0 0 127 0" result="hardAlpha"/>
<feMorphology radius="1" operator="dilate" in="SourceAlpha" result="effect2_innerShadow_59_8989"/>
<feOffset dy="1"/>
<feGaussianBlur stdDeviation="2"/>
<feComposite in2="hardAlpha" operator="arithmetic" k2="-1" k3="1"/>
<feColorMatrix type="matrix" values="0 0 0 0 0 0 0 0 0 0 0 0 0 0 0 0 0 0 0.02 0"/>
<feBlend mode="normal" in2="effect1_innerShadow_59_8989" result="effect2_innerShadow_59_8989"/>
</filter>
<radialGradient id="paint0_radial_59_8989" cx="0" cy="0" r="1" gradientUnits="userSpaceOnUse" gradientTransform="translate(720 318) rotate(90) scale(541.429)">
<stop stop-color="#DFE1E7"/>
<stop offset="1" stop-color="#DFE1E7" stop-opacity="0"/>
</radialGradient>
<radialGradient id="paint1_radial_59_8989" cx="0" cy="0" r="1" gradientUnits="userSpaceOnUse" gradientTransform="translate(720 318) rotate(90) scale(379)">
<stop stop-color="#DFE1E7"/>
<stop offset="1" stop-color="#DFE1E7" stop-opacity="0"/>
</radialGradient>
<clipPath id="clip0_59_8989">
<rect width="1440" height="635" fill="white"/>
</clipPath>
</defs>
</svg>
