<svg width="229" height="29" viewBox="0 0 104 27" fill="none" xmlns="http://www.w3.org/2000/svg">
<path d="M103.26 6.17797V9.34825H94.1416V6.17797H103.26ZM96.2145 2.57416H100.401V16.6643C100.401 17.1701 100.514 17.5449 100.74 17.7888C100.965 18.0236 101.327 18.141 101.823 18.141C101.986 18.141 102.167 18.1275 102.365 18.1004C102.564 18.0733 102.736 18.0417 102.88 18.0055L103.544 21.1487C103.083 21.2842 102.636 21.3835 102.203 21.4468C101.778 21.51 101.358 21.5416 100.943 21.5416C99.4344 21.5416 98.2693 21.1668 97.4474 20.4171C96.6254 19.6584 96.2145 18.5926 96.2145 17.2197V2.57416Z" fill="black"/>
<path d="M86.7644 21.6229C85.2108 21.6229 83.8696 21.3068 82.7405 20.6745C81.6115 20.0423 80.7444 19.1436 80.1393 17.9784C79.5432 16.8042 79.2451 15.4178 79.2451 13.8191C79.2451 12.2656 79.5432 10.9018 80.1393 9.72758C80.7444 8.5534 81.5935 7.63664 82.6864 6.9773C83.7883 6.31795 85.0799 5.98828 86.5611 5.98828C87.5637 5.98828 88.4985 6.15086 89.3656 6.47602C90.2327 6.79214 90.9914 7.27084 91.6417 7.91212C92.292 8.54437 92.7978 9.34371 93.1591 10.3102C93.5204 11.2676 93.701 12.3921 93.701 13.6836V14.8217H80.9115V12.234H91.6688L89.7179 12.9114C89.7179 12.1437 89.6004 11.4753 89.3656 10.9063C89.1308 10.3372 88.7785 9.89919 88.3088 9.5921C87.8482 9.27597 87.2747 9.11791 86.5882 9.11791C85.9018 9.11791 85.3192 9.27597 84.8405 9.5921C84.3708 9.90822 84.0096 10.3372 83.7567 10.8792C83.5038 11.4211 83.3773 12.0443 83.3773 12.7488V14.5778C83.3773 15.3998 83.5218 16.1043 83.8109 16.6913C84.0999 17.2694 84.5018 17.7165 85.0166 18.0326C85.5405 18.3397 86.1411 18.4933 86.8186 18.4933C87.2882 18.4933 87.7127 18.4255 88.0921 18.29C88.4714 18.1545 88.7966 17.9558 89.0675 17.6939C89.3475 17.432 89.5553 17.1159 89.6908 16.7455L93.5655 17.003C93.3759 17.9333 92.9785 18.7462 92.3733 19.4416C91.7772 20.1281 91.0049 20.6655 90.0566 21.0539C89.1082 21.4332 88.0108 21.6229 86.7644 21.6229Z" fill="black"/>
<path d="M73.4798 21.3248V6.17797H77.6662V21.3248H73.4798ZM75.5663 4.24058C74.943 4.24058 74.4101 4.03284 73.9676 3.61736C73.525 3.20189 73.3037 2.7006 73.3037 2.11352C73.3037 1.52643 73.525 1.02966 73.9676 0.623216C74.4101 0.207739 74.943 0 75.5663 0C76.1985 0 76.7359 0.207739 77.1785 0.623216C77.6211 1.02966 77.8424 1.52643 77.8424 2.11352C77.8424 2.7006 77.6211 3.20189 77.1785 3.61736C76.7359 4.03284 76.1985 4.24058 75.5663 4.24058Z" fill="black"/>
<path d="M72.4834 6.17798L67.1996 21.3248H62.4577L57.1875 6.17798H61.6178L64.8016 17.0301H64.9642L68.0938 6.17798H72.4834Z" fill="black"/>
<path d="M42.5762 26.988V6.17796H46.6948V8.73856H46.8845C47.0742 8.32308 47.3451 7.90309 47.6974 7.47858C48.0496 7.05407 48.5103 6.70182 49.0793 6.42182C49.6483 6.1328 50.3528 5.98828 51.1928 5.98828C52.3038 5.98828 53.3199 6.27731 54.2412 6.85536C55.1715 7.42439 55.9166 8.28696 56.4766 9.44307C57.0366 10.5992 57.3166 12.0443 57.3166 13.7785C57.3166 15.4585 57.0456 16.881 56.5037 18.0462C55.9618 19.2023 55.2257 20.0784 54.2953 20.6745C53.3741 21.2706 52.3354 21.5687 51.1793 21.5687C50.3664 21.5687 49.6754 21.4332 49.1064 21.1622C48.5374 20.8913 48.0722 20.5526 47.7109 20.1461C47.3587 19.7307 47.0832 19.3152 46.8845 18.8997H46.7626V26.988H42.5762ZM49.8515 18.2358C50.538 18.2358 51.116 18.0462 51.5857 17.6668C52.0554 17.2875 52.4122 16.7636 52.656 16.0952C52.8999 15.4178 53.0218 14.6411 53.0218 13.7649C53.0218 12.8888 52.8999 12.1211 52.656 11.4617C52.4212 10.7934 52.0689 10.2695 51.5993 9.89016C51.1296 9.51081 50.547 9.32113 49.8515 9.32113C49.1741 9.32113 48.5961 9.50629 48.1174 9.87661C47.6477 10.2379 47.2864 10.7527 47.0335 11.4211C46.7897 12.0804 46.6677 12.8617 46.6677 13.7649C46.6677 14.6591 46.7942 15.4404 47.0471 16.1088C47.3 16.7771 47.6613 17.301 48.1309 17.6804C48.6096 18.0507 49.1832 18.2358 49.8515 18.2358Z" fill="black"/>
<path d="M36.1878 21.3248V6.17797H40.3742V21.3248H36.1878ZM38.2743 4.24058C37.651 4.24058 37.1182 4.03284 36.6756 3.61736C36.233 3.20189 36.0117 2.7006 36.0117 2.11352C36.0117 1.52643 36.233 1.02966 36.6756 0.623216C37.1182 0.207739 37.651 0 38.2743 0C38.9065 0 39.4439 0.207739 39.8865 0.623216C40.3291 1.02966 40.5504 1.52643 40.5504 2.11352C40.5504 2.7006 40.3291 3.20189 39.8865 3.61736C39.4439 4.03284 38.9065 4.24058 38.2743 4.24058Z" fill="black"/>
<path d="M24.1766 12.5727V21.3249H19.9902V1.13806H24.0411V8.87407H24.2308C24.574 7.97989 25.125 7.27539 25.8837 6.76056C26.6514 6.24573 27.6088 5.98831 28.7559 5.98831C29.8036 5.98831 30.7204 6.21863 31.5062 6.67927C32.292 7.13087 32.9017 7.78119 33.3352 8.63021C33.7778 9.47922 33.9991 10.4999 33.9991 11.6921V21.3249H29.7991V12.4372C29.7991 11.5069 29.5598 10.7798 29.0811 10.256C28.6114 9.73212 27.9475 9.47019 27.0895 9.47019C26.5114 9.47019 26.0056 9.59664 25.5721 9.84954C25.1385 10.0934 24.7953 10.4457 24.5424 10.9063C24.2986 11.3669 24.1766 11.9224 24.1766 12.5727Z" fill="black"/>
<path d="M9.40244 21.5958C7.61408 21.5958 6.01088 21.1893 4.59283 20.3764C3.17479 19.5636 2.05481 18.3849 1.23288 16.8404C0.410961 15.2959 0 13.4307 0 11.245C0 9.04113 0.410961 7.16697 1.23288 5.62248C2.06384 4.06895 3.18834 2.89026 4.60638 2.0864C6.03346 1.27351 7.63214 0.867065 9.40244 0.867065C10.5766 0.867065 11.665 1.03416 12.6675 1.36835C13.6701 1.6935 14.5553 2.17221 15.323 2.80446C16.0998 3.42767 16.732 4.1954 17.2197 5.10765C17.7075 6.01086 18.0191 7.04504 18.1546 8.21018H13.8462C13.765 7.65922 13.6024 7.16245 13.3585 6.71988C13.1237 6.27731 12.8121 5.90247 12.4237 5.59538C12.0443 5.28829 11.6063 5.05345 11.1095 4.89088C10.6218 4.71926 10.0844 4.63346 9.49727 4.63346C8.46761 4.63346 7.55988 4.89539 6.77409 5.41925C5.99733 5.93408 5.39218 6.68375 4.95863 7.66825C4.53412 8.64372 4.32187 9.83596 4.32187 11.245C4.32187 12.6811 4.53864 13.8914 4.97218 14.8759C5.40572 15.8514 6.01088 16.5875 6.78764 17.0842C7.5644 17.581 8.4631 17.8294 9.48373 17.8294C10.0527 17.8294 10.5811 17.7526 11.0689 17.5991C11.5566 17.4455 11.9901 17.2242 12.3695 16.9352C12.7488 16.6462 13.065 16.2939 13.3179 15.8784C13.5798 15.4539 13.7559 14.9707 13.8462 14.4288H18.1546C18.0462 15.3591 17.7707 16.2533 17.3281 17.1113C16.8946 17.9694 16.303 18.7371 15.5533 19.4145C14.8036 20.0829 13.914 20.6158 12.8843 21.0132C11.8547 21.4016 10.694 21.5958 9.40244 21.5958Z" fill="black"/>
</svg>
