<svg width="229" height="28" viewBox="0 0 229 28" fill="none" xmlns="http://www.w3.org/2000/svg">
<path d="M118.912 27.8508C117.216 27.8508 115.892 26.5082 115.892 24.8301C115.892 23.1332 117.216 21.8093 118.912 21.8093C120.591 21.8093 121.933 23.1332 121.933 24.8301C121.933 26.5082 120.591 27.8508 118.912 27.8508Z" fill="#211F32"/>
<path d="M95.417 27.5338V0.626953H113.243V5.26993H101.048V11.7216H112.553V16.1222H101.048V22.8909H113.243V27.5338H95.417Z" fill="#211F32"/>
<path d="M81.8786 28C75.4829 28 71.362 25.0725 71.045 20.1126L71.0264 19.8142H76.3406L76.3779 20.0193C76.7322 22.1077 78.9511 23.413 82.0278 23.413C85.1418 23.413 87.0996 22.0518 87.0996 20.0007V19.982C87.0996 18.1547 85.7757 17.241 82.438 16.5511L79.6037 15.9917C74.2895 14.9288 71.6044 12.3929 71.6044 8.34663V8.32799C71.6044 3.40532 75.8931 0.160828 81.86 0.160828C88.0879 0.160828 91.9104 3.27479 92.1715 7.99235L92.1901 8.34663H86.8759L86.8572 8.12287C86.5775 6.01582 84.6383 4.72922 81.86 4.72922C78.9698 4.74786 77.2356 6.07176 77.2356 7.99235V8.011C77.2356 9.70783 78.6155 10.6961 81.7108 11.3114L84.5637 11.8895C90.1949 13.0083 92.7309 15.3018 92.7309 19.5345V19.5532C92.7309 24.7182 88.6659 28 81.8786 28Z" fill="#211F32"/>
<path d="M45.5176 27.5338V0.626953H50.4402L62.5978 18.1174H62.7096V0.626953H68.3222V27.5338H63.4368L51.242 9.9129H51.1302V27.5338H45.5176Z" fill="#211F32"/>
<path d="M24.3906 27.5338V0.626953H42.2167V5.26993H30.0219V11.7216H41.5267V16.1222H30.0219V22.8909H42.2167V27.5338H24.3906Z" fill="#211F32"/>
<path d="M10.8523 28C4.45651 28 0.335637 25.0725 0.0186465 20.1126L0 19.8142H5.31425L5.35154 20.0193C5.70582 22.1077 7.92475 23.413 11.0014 23.413C14.1154 23.413 16.0733 22.0518 16.0733 20.0007V19.982C16.0733 18.1547 14.7494 17.241 11.4116 16.5511L8.57738 15.9917C3.26313 14.9288 0.578041 12.3929 0.578041 8.34663V8.32799C0.578041 3.40532 4.86673 0.160828 10.8336 0.160828C17.0615 0.160828 20.8841 3.27479 21.1451 7.99235L21.1638 8.34663H15.8495L15.8309 8.12287C15.5512 6.01582 13.6119 4.72922 10.8336 4.72922C7.9434 4.74786 6.20928 6.07176 6.20928 7.99235V8.011C6.20928 9.70783 7.58912 10.6961 10.6844 11.3114L13.5373 11.8895C19.1686 13.0083 21.7045 15.3018 21.7045 19.5345V19.5532C21.7045 24.7182 17.6396 28 10.8523 28Z" fill="#211F32"/>
<path d="M225.286 27.6807C223.125 27.6807 221.817 26.2053 221.817 23.8838V23.8768C221.817 21.5763 223.146 20.038 225.209 20.038C227.271 20.038 228.537 21.5204 228.537 23.73V24.2404H223.328C223.356 25.6319 224.118 26.443 225.321 26.443C226.216 26.443 226.81 25.9815 226.999 25.4291L227.02 25.3732H228.453L228.439 25.4501C228.201 26.6178 227.069 27.6807 225.286 27.6807ZM225.216 21.2756C224.237 21.2756 223.482 21.9399 223.349 23.1706H227.041C226.915 21.898 226.202 21.2756 225.216 21.2756Z" fill="black"/>
<path d="M218.551 27.6807C216.712 27.6807 215.635 26.7717 215.482 25.4291L215.475 25.3662H216.971L216.985 25.4361C217.125 26.1144 217.628 26.513 218.558 26.513C219.467 26.513 220.013 26.1354 220.013 25.541V25.534C220.013 25.0585 219.747 24.7858 218.957 24.597L217.754 24.3243C216.356 24.0027 215.663 23.3314 215.663 22.2616V22.2546C215.663 20.94 216.81 20.038 218.502 20.038C220.243 20.038 221.292 21.0099 221.369 22.2616L221.376 22.3455H219.957L219.95 22.2965C219.859 21.6532 219.355 21.2057 218.502 21.2057C217.691 21.2057 217.181 21.5903 217.181 22.1776V22.1846C217.181 22.6391 217.481 22.9468 218.272 23.1356L219.467 23.4083C220.971 23.7579 221.544 24.3523 221.544 25.4081V25.4151C221.544 26.7577 220.285 27.6807 218.551 27.6807Z" fill="black"/>
<path d="M208.566 27.5338V20.1778H210.077V21.2896H210.112C210.496 20.5414 211.251 20.038 212.363 20.038C213.979 20.038 214.909 21.0798 214.909 22.772V27.5338H213.391V23.0587C213.391 21.9539 212.874 21.3316 211.825 21.3316C210.762 21.3316 210.077 22.1007 210.077 23.2475V27.5338H208.566Z" fill="black"/>
<path d="M204.712 27.6807C202.552 27.6807 201.244 26.2053 201.244 23.8838V23.8768C201.244 21.5763 202.573 20.038 204.635 20.038C206.698 20.038 207.964 21.5204 207.964 23.73V24.2404H202.755C202.782 25.6319 203.545 26.443 204.747 26.443C205.642 26.443 206.237 25.9815 206.426 25.4291L206.447 25.3732H207.88L207.866 25.4501C207.628 26.6178 206.495 27.6807 204.712 27.6807ZM204.642 21.2756C203.664 21.2756 202.908 21.9399 202.775 23.1706H206.467C206.342 21.898 205.628 21.2756 204.642 21.2756Z" fill="black"/>
<path d="M197.978 27.6807C196.139 27.6807 195.062 26.7717 194.908 25.4291L194.901 25.3662H196.398L196.412 25.4361C196.552 26.1144 197.055 26.513 197.985 26.513C198.894 26.513 199.439 26.1354 199.439 25.541V25.534C199.439 25.0585 199.174 24.7858 198.384 24.597L197.181 24.3243C195.782 24.0027 195.09 23.3314 195.09 22.2616V22.2546C195.09 20.94 196.237 20.038 197.929 20.038C199.67 20.038 200.719 21.0099 200.796 22.2616L200.803 22.3455H199.384L199.377 22.2965C199.286 21.6532 198.782 21.2057 197.929 21.2057C197.118 21.2057 196.608 21.5903 196.608 22.1776V22.1846C196.608 22.6391 196.908 22.9468 197.698 23.1356L198.894 23.4083C200.397 23.7579 200.971 24.3523 200.971 25.4081V25.4151C200.971 26.7577 199.712 27.6807 197.978 27.6807Z" fill="black"/>
<path d="M189.292 27.6807C187.453 27.6807 186.377 26.7717 186.223 25.4291L186.216 25.3662H187.712L187.726 25.4361C187.866 26.1144 188.369 26.513 189.299 26.513C190.208 26.513 190.754 26.1354 190.754 25.541V25.534C190.754 25.0585 190.488 24.7858 189.698 24.597L188.495 24.3243C187.097 24.0027 186.405 23.3314 186.405 22.2616V22.2546C186.405 20.94 187.551 20.038 189.244 20.038C190.985 20.038 192.034 21.0099 192.11 22.2616L192.117 22.3455H190.698L190.691 22.2965C190.6 21.6532 190.097 21.2057 189.244 21.2057C188.432 21.2057 187.922 21.5903 187.922 22.1776V22.1846C187.922 22.6391 188.223 22.9468 189.013 23.1356L190.208 23.4083C191.712 23.7579 192.285 24.3523 192.285 25.4081V25.4151C192.285 26.7577 191.027 27.6807 189.292 27.6807Z" fill="black"/>
<path d="M182.684 27.6807C180.523 27.6807 179.216 26.2053 179.216 23.8838V23.8768C179.216 21.5763 180.544 20.038 182.607 20.038C184.67 20.038 185.936 21.5204 185.936 23.73V24.2404H180.726C180.754 25.6319 181.516 26.443 182.719 26.443C183.614 26.443 184.208 25.9815 184.397 25.4291L184.418 25.3732H185.852L185.838 25.4501C185.6 26.6178 184.467 27.6807 182.684 27.6807ZM182.614 21.2756C181.635 21.2756 180.88 21.9399 180.747 23.1706H184.439C184.313 21.898 183.6 21.2756 182.614 21.2756Z" fill="black"/>
<path d="M173.32 27.5339V17.4438H174.831V23.3174H174.866L177.816 20.1778H179.593L176.572 23.3524L179.711 27.5339H177.956L175.46 24.2614L174.831 24.8837V27.5339H173.32Z" fill="black"/>
<path d="M168.544 27.6667C167.076 27.6667 166.09 26.7647 166.09 25.4431V25.4291C166.09 24.1495 167.083 23.3664 168.824 23.2615L170.824 23.1426V22.5902C170.824 21.7791 170.299 21.2896 169.362 21.2896C168.488 21.2896 167.95 21.7022 167.824 22.2895L167.81 22.3525H166.384L166.391 22.2755C166.495 21.0099 167.593 20.038 169.404 20.038C171.201 20.038 172.341 20.9889 172.341 22.4643V27.5338H170.824V26.3731H170.796C170.369 27.1633 169.516 27.6667 168.544 27.6667ZM167.614 25.4082C167.614 26.0515 168.146 26.457 168.957 26.457C170.02 26.457 170.824 25.7368 170.824 24.7788V24.2055L169.027 24.3173C168.118 24.3733 167.614 24.7718 167.614 25.3942V25.4082Z" fill="black"/>
<path d="M155.14 27.5338V20.1778H156.65V21.3176H156.685C157 20.5484 157.748 20.038 158.713 20.038C159.727 20.038 160.468 20.5624 160.762 21.4854H160.797C161.174 20.5904 162.041 20.038 163.09 20.038C164.544 20.038 165.495 21.0029 165.495 22.4783V27.5338H163.978V22.8419C163.978 21.884 163.468 21.3316 162.573 21.3316C161.678 21.3316 161.055 22.0028 161.055 22.9328V27.5338H159.573V22.73C159.573 21.877 159.034 21.3316 158.181 21.3316C157.286 21.3316 156.65 22.0378 156.65 22.9888V27.5338H155.14Z" fill="black"/>
<path d="M151.355 27.6807C149.901 27.6807 149.201 27.0654 149.201 25.597V21.3805H148.146V20.1778H149.201V18.2619H150.747V20.1778H152.124V21.3805H150.747V25.5061C150.747 26.2542 151.082 26.478 151.719 26.478C151.879 26.478 152.012 26.464 152.124 26.45V27.6178C151.949 27.6457 151.663 27.6807 151.355 27.6807Z" fill="black"/>
<path d="M144.082 27.6667C142.614 27.6667 141.628 26.7647 141.628 25.4431V25.4291C141.628 24.1495 142.621 23.3664 144.362 23.2615L146.362 23.1426V22.5902C146.362 21.7791 145.837 21.2896 144.9 21.2896C144.026 21.2896 143.488 21.7022 143.362 22.2895L143.348 22.3525H141.922L141.929 22.2755C142.033 21.0099 143.131 20.038 144.942 20.038C146.739 20.038 147.879 20.9889 147.879 22.4643V27.5338H146.362V26.3731H146.334C145.907 27.1633 145.054 27.6667 144.082 27.6667ZM143.152 25.4082C143.152 26.0515 143.684 26.457 144.495 26.457C145.558 26.457 146.362 25.7368 146.362 24.7788V24.2055L144.565 24.3173C143.656 24.3733 143.152 24.7718 143.152 25.3942V25.4082Z" fill="black"/>
<path d="M134.594 27.5339V17.4438H136.104V21.3875H136.139C136.531 20.5344 137.321 20.038 138.419 20.038C139.992 20.038 141.027 21.2127 141.027 22.9888V27.5339H139.516V23.2755C139.516 22.0588 138.901 21.3316 137.838 21.3316C136.796 21.3316 136.104 22.1287 136.104 23.2755V27.5339H134.594Z" fill="black"/>
<path d="M133.089 27.6807C131.635 27.6807 130.936 27.0654 130.936 25.597V21.3805H129.88V20.1778H130.936V18.2619H132.481V20.1778H133.859V21.3805H132.481V25.5061C132.481 26.2542 132.817 26.478 133.453 26.478C133.614 26.478 133.747 26.464 133.859 26.45V27.6178C133.684 27.6457 133.397 27.6807 133.089 27.6807Z" fill="black"/>
<path d="M192.51 10.3768C190.671 10.3768 189.594 9.46778 189.441 8.12523L189.434 8.0623H190.93L190.944 8.13223C191.084 8.81049 191.587 9.20906 192.517 9.20906C193.426 9.20906 193.972 8.83147 193.972 8.23711V8.23012C193.972 7.75463 193.706 7.48193 192.916 7.29313L191.713 7.02043C190.315 6.69878 189.622 6.0275 189.622 4.95766V4.95067C189.622 3.63609 190.769 2.73407 192.461 2.73407C194.202 2.73407 195.251 3.70602 195.328 4.95766L195.335 5.04157H193.916L193.909 4.99262C193.818 4.34932 193.314 3.90181 192.461 3.90181C191.65 3.90181 191.14 4.28639 191.14 4.87375V4.88075C191.14 5.33525 191.44 5.64292 192.231 5.83172L193.426 6.10442C194.93 6.45404 195.503 7.0484 195.503 8.10426V8.11125C195.503 9.45379 194.244 10.3768 192.51 10.3768Z" fill="black"/>
<path d="M185.454 12.8241C183.567 12.8241 182.371 11.9501 182.147 10.8243L182.14 10.7614H183.636L183.664 10.8173C183.867 11.2858 184.504 11.6075 185.448 11.6075C186.65 11.6075 187.314 10.9642 187.314 9.93627V8.92936H187.28C186.86 9.7265 186.021 10.2369 184.965 10.2369C183.119 10.2369 181.902 8.78951 181.902 6.496V6.489C181.902 4.1815 183.133 2.73407 185 2.73407C186.035 2.73407 186.846 3.29346 187.28 4.12556H187.314V2.87392H188.832V10.0272C188.832 11.7054 187.531 12.8241 185.454 12.8241ZM185.392 9.00628C186.545 9.00628 187.314 8.03433 187.314 6.51697V6.50998C187.314 4.99962 186.538 4.02767 185.392 4.02767C184.196 4.02767 183.448 4.99262 183.448 6.50998V6.51697C183.448 8.05531 184.196 9.00628 185.392 9.00628Z" fill="black"/>
<path d="M175 10.23V2.87392H176.51V3.98571H176.545C176.93 3.23752 177.685 2.73407 178.797 2.73407C180.412 2.73407 181.342 3.77594 181.342 5.46811V10.23H179.825V5.7548C179.825 4.65 179.307 4.02767 178.258 4.02767C177.196 4.02767 176.51 4.79684 176.51 5.9436V10.23H175Z" fill="black"/>
<path d="M173.258 1.74112C172.769 1.74112 172.377 1.34954 172.377 0.874054C172.377 0.391576 172.769 0 173.258 0C173.754 0 174.139 0.391576 174.139 0.874054C174.139 1.34954 173.754 1.74112 173.258 1.74112ZM172.503 10.2299V2.87389H174.013V10.2299H172.503Z" fill="black"/>
<path d="M165.111 10.23V0.139893H166.622V4.08362H166.657C167.048 3.23055 167.838 2.73408 168.936 2.73408C170.509 2.73408 171.544 3.90881 171.544 5.68489V10.23H170.034V5.97158C170.034 4.7549 169.419 4.02768 168.356 4.02768C167.314 4.02768 166.622 4.82482 166.622 5.97158V10.23H165.111Z" fill="black"/>
<path d="M163.608 10.3768C162.154 10.3768 161.454 9.76142 161.454 8.29301V4.07657H160.398V2.87387H161.454V0.957947H163V2.87387H164.377V4.07657H163V8.2021C163 8.95029 163.335 9.17405 163.972 9.17405C164.132 9.17405 164.265 9.16007 164.377 9.14608V10.3138C164.202 10.3418 163.916 10.3768 163.608 10.3768Z" fill="black"/>
<path d="M153.859 10.3768C151.985 10.3768 150.782 8.89442 150.782 6.55195V6.54496C150.782 4.20249 151.999 2.73408 153.845 2.73408C154.887 2.73408 155.726 3.25852 156.166 4.12558H156.194V0.139893H157.712V10.23H156.194V8.98532H156.166C155.726 9.84539 154.915 10.3768 153.859 10.3768ZM154.257 9.07622C155.397 9.07622 156.201 8.08329 156.201 6.55195V6.54496C156.201 5.02061 155.39 4.02768 154.257 4.02768C153.069 4.02768 152.328 4.99264 152.328 6.54496V6.55195C152.328 8.11826 153.062 9.07622 154.257 9.07622Z" fill="black"/>
<path d="M148.621 10.23V0.139893H150.131V10.23H148.621Z" fill="black"/>
<path d="M146.823 1.74112C146.334 1.74112 145.942 1.34954 145.942 0.874054C145.942 0.391576 146.334 0 146.823 0C147.32 0 147.704 0.391576 147.704 0.874054C147.704 1.34954 147.32 1.74112 146.823 1.74112ZM146.068 10.2299V2.87389H147.579V10.2299H146.068Z" fill="black"/>
<path d="M141.278 10.3768C139.663 10.3768 138.74 9.33491 138.74 7.64274V2.8739H140.251V7.34906C140.251 8.46085 140.768 9.07619 141.817 9.07619C142.88 9.07619 143.565 8.31401 143.565 7.16725V2.8739H145.082V10.2299H143.565V9.12513H143.53C143.145 9.86633 142.397 10.3768 141.278 10.3768Z" fill="black"/>
<path d="M130.691 10.23V0.139893H134.719C136.509 0.139893 137.684 1.13981 137.684 2.66416V2.67814C137.684 3.74099 136.88 4.72693 135.817 4.88076V4.90873C137.25 5.05557 138.18 6.0415 138.18 7.37007V7.38405C138.18 9.15314 136.887 10.23 134.74 10.23H130.691ZM134.341 1.41951H132.258V4.44024H133.992C135.376 4.44024 136.125 3.88084 136.125 2.86694V2.85296C136.125 1.92995 135.474 1.41951 134.341 1.41951ZM134.313 5.64993H132.258V8.95035H134.418C135.824 8.95035 136.579 8.38397 136.579 7.30713V7.29315C136.579 6.20932 135.81 5.64993 134.313 5.64993Z" fill="black"/>
</svg>
