<svg width="122" height="28" viewBox="0 0 122 28" fill="none" xmlns="http://www.w3.org/2000/svg">
<path d="M118.912 27.69C117.216 27.69 115.892 26.3474 115.892 24.6693C115.892 22.9724 117.216 21.6485 118.912 21.6485C120.591 21.6485 121.933 22.9724 121.933 24.6693C121.933 26.3474 120.591 27.69 118.912 27.69Z" fill="black"/>
<path d="M95.417 27.373V0.466125H113.243V5.1091H101.048V11.5608H112.553V15.9614H101.048V22.73H113.243V27.373H95.417Z" fill="black"/>
<path d="M81.8786 27.8392C75.4829 27.8392 71.362 24.9117 71.045 19.9517L71.0264 19.6534H76.3406L76.3779 19.8585C76.7322 21.9469 78.9511 23.2522 82.0278 23.2522C85.1418 23.2522 87.0996 21.891 87.0996 19.8399V19.8212C87.0996 17.9939 85.7757 17.0802 82.438 16.3903L79.6037 15.8309C74.2895 14.768 71.6044 12.2321 71.6044 8.1858V8.16716C71.6044 3.24449 75.8931 0 81.86 0C88.0879 0 91.9104 3.11396 92.1715 7.83152L92.1901 8.1858H86.8759L86.8572 7.96205C86.5775 5.85499 84.6383 4.56839 81.86 4.56839C78.9698 4.58703 77.2356 5.91093 77.2356 7.83152V7.85017C77.2356 9.547 78.6155 10.5353 81.7108 11.1506L84.5637 11.7286C90.1949 12.8474 92.7309 15.1409 92.7309 19.3737V19.3923C92.7309 24.5574 88.6659 27.8392 81.8786 27.8392Z" fill="black"/>
<path d="M45.5176 27.373V0.466125H50.4402L62.5978 17.9565H62.7096V0.466125H68.3222V27.373H63.4368L51.242 9.75207H51.1302V27.373H45.5176Z" fill="black"/>
<path d="M24.3906 27.373V0.466125H42.2167V5.1091H30.0219V11.5608H41.5267V15.9614H30.0219V22.73H42.2167V27.373H24.3906Z" fill="black"/>
<path d="M10.8523 27.8392C4.45651 27.8392 0.335637 24.9117 0.0186465 19.9517L0 19.6534H5.31425L5.35154 19.8585C5.70582 21.9469 7.92475 23.2522 11.0014 23.2522C14.1154 23.2522 16.0733 21.891 16.0733 19.8399V19.8212C16.0733 17.9939 14.7494 17.0802 11.4116 16.3903L8.57738 15.8309C3.26313 14.768 0.578041 12.2321 0.578041 8.1858V8.16716C0.578041 3.24449 4.86673 0 10.8336 0C17.0615 0 20.8841 3.11396 21.1451 7.83152L21.1638 8.1858H15.8495L15.8309 7.96205C15.5512 5.85499 13.6119 4.56839 10.8336 4.56839C7.9434 4.58703 6.20928 5.91093 6.20928 7.83152V7.85017C6.20928 9.547 7.58912 10.5353 10.6844 11.1506L13.5373 11.7286C19.1686 12.8474 21.7045 15.1409 21.7045 19.3737V19.3923C21.7045 24.5574 17.6396 27.8392 10.8523 27.8392Z" fill="black"/>
</svg>
