<svg width="186" height="50" viewBox="0 0 186 50" fill="none" xmlns="http://www.w3.org/2000/svg">
<path d="M78.7927 27.5377H67.6517L70.4007 23.1376H77.2589L72.9124 10.6979L65.8146 30.9122H60.332L67.8033 9.69648C68.902 6.74486 70.6029 5.24166 72.9168 5.22852C75.2285 5.25481 76.9337 6.74486 78.0038 9.69648L85.4971 30.9122H80.0035L78.7927 27.5377Z" fill="black"/>
<path d="M93.4986 26.5135H105.602L107.982 30.9158H93.2107C91.5582 30.9158 90.2508 30.2956 89.2993 29.0444C88.7101 28.3072 88.3928 27.3905 88.4005 26.4478V5.55859H93.514L93.4986 26.5135Z" fill="black"/>
<path d="M114.114 5.559L111.365 9.95903H106.311V5.559H114.114ZM118.289 30.9118H113.136V10.0248C113.136 8.53618 113.783 7.3456 115.078 6.45303C115.929 5.85854 116.946 5.54579 117.986 5.559H125.584V9.95903H118.289V30.9118Z" fill="black"/>
<path d="M133.907 20.5669V26.5139H147.017L149.421 30.9162H133.6C131.974 30.9162 130.666 30.3092 129.688 29.0843C129.085 28.3396 128.754 27.4122 128.75 26.4548V10.0248C128.75 8.53618 129.398 7.3456 130.693 6.45303C131.544 5.85854 132.561 5.54579 133.6 5.559H149.421L147.017 9.95903H133.907V16.1647H145.993V20.5669H133.907Z" fill="black"/>
<path d="M153.387 5.55664H158.568V16.1645H161.845L168.334 5.55664H174.161L166.099 18.2352L174.517 30.9116H168.663L162.016 20.5667H158.568V30.9116H153.387V5.55664Z" fill="black"/>
<path d="M44.1821 5.76987C45.2894 5.76987 46.3514 6.20851 47.1344 6.9893C47.9174 7.77008 48.3572 8.82906 48.3572 9.93325V41.415C48.3572 42.5192 47.9174 43.5781 47.1344 44.3589C46.3514 45.1397 45.2894 45.5784 44.1821 45.5784H12.6269C11.5196 45.5784 10.4576 45.1397 9.67464 44.3589C8.89165 43.5781 8.45178 42.5192 8.45178 41.415V9.93325C8.45178 8.82906 8.89165 7.77008 9.67464 6.9893C10.4576 6.20851 11.5196 5.76987 12.6269 5.76987H44.1821ZM44.1821 4.29297H12.6269C11.1287 4.29931 9.69376 4.89559 8.63439 5.95198C7.57503 7.00836 6.97706 8.43931 6.9707 9.93325V41.415C6.97649 42.9091 7.57427 44.3404 8.63376 45.3969C9.69325 46.4534 11.1286 47.0495 12.6269 47.0553H44.1953C45.6936 47.0495 47.1289 46.4534 48.1884 45.3969C49.2479 44.3404 49.8457 42.9091 49.8515 41.415V9.93325C49.8445 8.43722 49.2446 7.00463 48.1825 5.94799C47.1204 4.89136 45.6824 4.29642 44.1821 4.29297Z" fill="black"/>
<path d="M18.3618 16.3388H16.4984L16.9598 15.6004H18.1113L17.384 13.5187L16.1951 16.891H15.2832L16.5204 13.3478C16.7049 12.846 16.9818 12.6093 17.3796 12.5962C17.7773 12.583 18.052 12.846 18.2256 13.3478L19.4803 16.891H18.5728L18.3618 16.3388Z" fill="black"/>
<path d="M20.8191 16.164H22.8407L23.2385 16.9024H20.7664C20.6409 16.9073 20.5162 16.881 20.4034 16.8259C20.2906 16.7709 20.1934 16.6887 20.1203 16.5869C20.0197 16.4634 19.9673 16.3077 19.9731 16.1486V12.6602H20.8323L20.8191 16.1662V16.164Z" fill="black"/>
<path d="M24.2684 12.6745L23.8048 13.4129H22.9609V12.6745H24.2684ZM24.9562 16.9036H24.097V13.4129C24.0938 13.2951 24.1212 13.1785 24.1767 13.0744C24.2321 12.9703 24.3137 12.8824 24.4134 12.8191C24.5562 12.7182 24.7286 12.6673 24.9035 12.6745H26.1714V13.4129H24.9562V16.9036Z" fill="black"/>
<path d="M62.1681 38.832L61.5858 39.7545H60.5156V38.832H62.1681ZM63.0471 44.1809H61.9637V39.7808C61.9594 39.6308 61.995 39.4822 62.0668 39.3502C62.1385 39.2183 62.244 39.1075 62.3725 39.0292C62.5499 38.9036 62.7636 38.839 62.9811 38.8452H64.5787V39.7677H63.0405V44.1809H63.0471Z" fill="black"/>
<path d="M66.4486 41.6522L66.8199 41.0715H68.7757V38.832H69.859V44.1809H68.7757V41.9896H66.4486V44.1809H65.3652V38.832H66.4486V41.6522Z" fill="black"/>
<path d="M71.9196 41.9928V43.244H74.6818L75.1828 44.1665H71.8537C71.6966 44.172 71.5404 44.1403 71.3979 44.074C71.2555 44.0078 71.1308 43.9088 71.0341 43.7852C70.9073 43.628 70.8376 43.4326 70.8363 43.2308V39.7664C70.832 39.6164 70.8675 39.4678 70.9393 39.3358C71.0111 39.2039 71.1165 39.0931 71.245 39.0148C71.4265 38.8872 71.645 38.8225 71.8669 38.8308H75.2092L74.7082 39.7533H71.946V41.0681H74.495V41.9906H71.9196V41.9928Z" fill="black"/>
<path d="M77.9585 40.3586C77.9606 40.1399 78.0173 39.9252 78.1236 39.7339C78.2299 39.5426 78.3824 39.3807 78.5672 39.263C78.973 38.9679 79.4648 38.8139 79.967 38.8248H80.6855C81.1257 38.828 81.5594 38.9314 81.9534 39.1271C82.0997 39.2036 82.2368 39.2962 82.3622 39.4032L81.4107 40.1285C81.3379 40.0254 81.2438 39.9391 81.1345 39.8756C81.0253 39.8121 80.9037 39.7728 80.7778 39.7604H79.945C79.7998 39.7506 79.6542 39.7712 79.5176 39.8211C79.3809 39.8709 79.2563 39.9488 79.1517 40.0497C79.0789 40.1341 79.0371 40.2408 79.0331 40.3521C79.0331 40.5383 79.2308 40.6961 79.6154 40.8276C79.734 40.867 79.945 40.9327 80.2351 40.9985C80.7525 41.1061 81.2515 41.2884 81.7161 41.5397C81.9207 41.6458 82.0934 41.8042 82.2165 41.9986C82.3397 42.193 82.4089 42.4165 82.4171 42.6463C82.4103 42.8655 82.3502 43.0798 82.2419 43.2707C82.1335 43.4616 81.9802 43.6233 81.7952 43.7419C81.3688 44.0372 80.8596 44.1906 80.3405 44.1802H79.6154C79.1588 44.1782 78.7085 44.0749 78.2969 43.8778C78.1467 43.8012 78.0052 43.7086 77.875 43.6017L78.8001 42.8764C78.8836 42.9812 78.9877 43.0679 79.106 43.1312C79.2242 43.1945 79.3542 43.233 79.4879 43.2445H80.3449C80.5013 43.2562 80.6585 43.2354 80.8064 43.1833C80.9543 43.1313 81.0897 43.0491 81.2041 42.9421C81.2797 42.8634 81.3262 42.7614 81.336 42.6529C81.336 42.4337 81.1382 42.2694 80.7558 42.1379C80.7031 42.1116 80.3581 42.0196 79.7384 41.8487C79.0111 41.6515 78.5232 41.4258 78.2705 41.1497C78.0659 40.9374 77.9537 40.653 77.9585 40.3586Z" fill="black"/>
<path d="M84.3137 41.9927V43.2439H87.0758L87.5791 44.1664H84.2346C84.0778 44.1716 83.9221 44.1397 83.78 44.0735C83.638 44.0072 83.5136 43.9084 83.4171 43.7852C83.2883 43.6289 83.2177 43.433 83.2171 43.2308V39.7664C83.2129 39.6161 83.2486 39.4673 83.3208 39.3353C83.393 39.2032 83.499 39.0926 83.6281 39.0148C83.8088 38.8874 84.0265 38.8228 84.2477 38.8307H87.5922L87.089 39.7532H84.3269V41.068H86.8781V41.9905H84.3137V41.9927Z" fill="black"/>
<path d="M89.2167 40.8594V42.1369C89.2117 42.3036 89.245 42.4692 89.3139 42.621C89.3828 42.7729 89.4856 42.9071 89.6144 43.0134C89.7819 43.1523 89.9921 43.2296 90.2099 43.2326H90.9351C91.2088 43.2363 91.4735 43.1343 91.6734 42.9477C91.6991 42.9248 91.7214 42.8982 91.7393 42.8688L92.6776 43.5941C92.3296 43.8788 91.9087 44.061 91.4624 44.12C91.2881 44.1552 91.1107 44.1728 90.9329 44.1726H90.2077C89.9296 44.1762 89.6537 44.1232 89.3968 44.017C89.1399 43.9108 88.9074 43.7535 88.7134 43.5547C88.5252 43.3713 88.3765 43.1516 88.2763 42.909C88.1762 42.6663 88.1268 42.4059 88.1311 42.1435V40.8529C88.1295 40.5795 88.1838 40.3087 88.2907 40.0571C88.3977 39.8054 88.5549 39.5781 88.753 39.3891C89.1433 39.0139 89.6656 38.8063 90.2077 38.8106H90.9329C91.3894 38.8126 91.8398 38.9159 92.2513 39.113C92.4015 39.1896 92.543 39.2822 92.6732 39.3891L91.7349 40.1144C91.6514 40.0096 91.5473 39.9229 91.4291 39.8596C91.3108 39.7963 91.1808 39.7578 91.0471 39.7463H90.1879C90.0311 39.7447 89.8766 39.7844 89.74 39.8613C89.6034 39.9382 89.4896 40.0497 89.41 40.1845C89.2848 40.3876 89.2179 40.6211 89.2167 40.8594Z" fill="black"/>
<path d="M96.0479 44.2456H95.3227C95.0447 44.249 94.7688 44.196 94.5119 44.0898C94.255 43.9836 94.0225 43.8263 93.8285 43.6277C93.6405 43.4442 93.4921 43.2244 93.3924 42.9818C93.2926 42.7391 93.2436 42.4787 93.2484 42.2165V40.7944C93.2463 40.5212 93.3002 40.2504 93.4068 39.9987C93.5133 39.7471 93.6703 39.5197 93.868 39.3306C94.2586 38.9558 94.7807 38.7482 95.3227 38.7521H96.0479C96.326 38.7486 96.6019 38.8015 96.8588 38.9077C97.1157 39.014 97.3482 39.1713 97.5421 39.3701C97.7304 39.5534 97.8791 39.7731 97.9792 40.0158C98.0794 40.2584 98.1288 40.5189 98.1245 40.7812V42.2033C98.1239 42.4738 98.0696 42.7414 97.9647 42.9908C97.8598 43.2402 97.7063 43.4664 97.5133 43.6563C97.3202 43.8462 97.0912 43.996 96.8397 44.0972C96.5882 44.1983 96.3191 44.2488 96.0479 44.2456ZM95.3227 43.3231H96.0479C96.2051 43.3248 96.3599 43.2852 96.4969 43.2083C96.6338 43.1314 96.748 43.0198 96.828 42.8848C96.9609 42.6857 97.0306 42.4513 97.0279 42.2121V40.79C97.0341 40.6232 97.0013 40.4572 96.9323 40.3051C96.8633 40.1531 96.7599 40.019 96.6302 39.9135C96.4688 39.7731 96.2621 39.6953 96.0479 39.6944H95.3227C95.1656 39.6926 95.0107 39.7322 94.8737 39.8091C94.7368 39.8861 94.6226 39.9976 94.5426 40.1326C94.3968 40.3264 94.3195 40.563 94.3229 40.8053V42.2274C94.3177 42.3939 94.3506 42.5594 94.4191 42.7113C94.4877 42.8631 94.59 42.9974 94.7184 43.104C94.8885 43.2444 95.102 43.3218 95.3227 43.3231Z" fill="black"/>
<path d="M100.067 38.7852C100.463 38.7852 100.779 39.0043 101.032 39.4688C101.072 39.5477 101.111 39.6288 101.151 39.7208L102.66 43.2575V38.818H103.744V43.2575C103.743 43.4085 103.702 43.5566 103.625 43.6865C103.548 43.8163 103.437 43.9232 103.304 43.996C103.109 44.1258 102.88 44.1945 102.645 44.1932C102.25 44.1932 101.933 43.974 101.68 43.5095C101.641 43.4284 101.601 43.3495 101.562 43.2575L100.056 39.7274V44.1669H98.9688V39.7274C98.971 39.5768 99.0128 39.4294 99.0899 39.2998C99.167 39.1703 99.2767 39.0631 99.4082 38.9889C99.6059 38.8638 99.8335 38.7935 100.067 38.7852Z" fill="black"/>
<path d="M104.744 39.7791C104.742 39.6272 104.778 39.4773 104.85 39.3435C104.922 39.2097 105.027 39.0964 105.155 39.0143C105.335 38.8949 105.546 38.8308 105.762 38.8302H107.23C107.507 38.8267 107.783 38.8797 108.039 38.9859C108.296 39.0922 108.528 39.2495 108.722 39.4482C108.91 39.6312 109.059 39.8509 109.159 40.0936C109.26 40.3363 109.309 40.5969 109.304 40.8593V42.1368C109.307 42.411 109.253 42.6827 109.146 42.9353C109.039 43.1878 108.881 43.4157 108.682 43.605C108.293 43.98 107.771 44.1877 107.23 44.1835H104.744V39.7791ZM108.207 42.15V40.8593C108.214 40.6927 108.182 40.5268 108.113 40.3747C108.044 40.2226 107.941 40.0885 107.812 39.9828C107.65 39.8431 107.444 39.7655 107.23 39.7637H105.83V43.2544H107.23C107.387 43.2559 107.541 43.2162 107.678 43.1393C107.815 43.0624 107.93 42.9509 108.01 42.8161C108.141 42.619 108.21 42.3868 108.207 42.15Z" fill="black"/>
<path d="M112.342 38.832H113.441V41.0715H114.129L115.502 38.832H116.724L115.019 41.5054L116.803 44.1809H115.581L114.179 41.9896H113.452V44.1809H112.353L112.34 38.832H112.342Z" fill="black"/>
<path d="M118.529 41.9927V43.2439H121.289L121.792 44.1664H118.447C118.291 44.1716 118.135 44.1397 117.993 44.0735C117.851 44.0072 117.726 43.9084 117.63 43.7852C117.503 43.6281 117.432 43.4328 117.43 43.2308V39.7664C117.426 39.6161 117.462 39.4676 117.534 39.3356C117.606 39.2036 117.712 39.093 117.841 39.0148C118.022 38.8874 118.239 38.8228 118.461 38.8307H121.805L121.302 39.7532H118.542V41.068H121.091V41.9905H118.529V41.9927Z" fill="black"/>
<path d="M124.778 41.1493L126.272 38.831H127.434L125.848 41.3597C125.717 41.5971 125.538 41.804 125.321 41.9667V44.1579H124.235V41.9667C124.013 41.7951 123.829 41.5794 123.694 41.3334L122.121 38.8047H123.284L124.778 41.1493Z" fill="black"/>
</svg>
