<svg width="141" height="40" viewBox="0 0 141 40" fill="none" xmlns="http://www.w3.org/2000/svg">
<path d="M51.0996 20.9807C51.0996 26.8038 55.5412 31.2 61.3996 31.2C67.258 31.2 71.6996 26.8038 71.6996 20.9807C71.6996 15.1962 67.258 10.8 61.3996 10.8C55.5412 10.8 51.0996 15.1962 51.0996 20.9807ZM54.8137 20.9807C54.8137 17.0858 57.6472 14.155 61.3996 14.155C65.152 14.155 67.9855 17.0858 67.9855 20.9807C67.9855 24.9142 65.152 27.845 61.3996 27.845C57.6472 27.845 54.8137 24.9142 54.8137 20.9807ZM74.0996 20.9807C74.0996 26.8038 78.5412 31.2 84.3996 31.2C90.258 31.2 94.6996 26.8038 94.6996 20.9807C94.6996 15.1962 90.258 10.8 84.3996 10.8C78.5412 10.8 74.0996 15.1962 74.0996 20.9807ZM77.8137 20.9807C77.8137 17.0858 80.6472 14.155 84.3996 14.155C88.152 14.155 90.9855 17.0858 90.9855 20.9807C90.9855 24.9142 88.152 27.845 84.3996 27.845C80.6472 27.845 77.8137 24.9142 77.8137 20.9807ZM120.1 20.9807C120.1 26.8038 124.637 31.2 130.622 31.2C135.003 31.2 138.406 28.8862 140.049 25.6083C140.255 25.1357 140.391 24.6987 140.456 24.2972H136.853C135.68 26.5724 133.516 28.0378 130.7 28.0378C126.867 28.0378 124.285 25.4155 123.894 22.2147H140.641C140.684 21.8086 140.699 21.4081 140.7 21.0141C140.713 15.1973 136.324 10.8 130.426 10.8C124.559 10.8 120.1 15.1962 120.1 20.9807ZM123.972 19.3225C124.52 16.3146 127.062 13.9622 130.426 13.9622C133.79 13.9622 136.333 16.2374 136.88 19.3225H123.972ZM114.08 30.816H117.7V4H114.08V14.3808C112.424 12.2304 109.883 10.8864 106.841 10.8864C101.297 10.8864 97.0996 15.264 97.0996 21.024C97.0996 26.8224 101.297 31.2 106.841 31.2C109.883 31.2 112.424 29.8944 114.08 27.744V30.816ZM100.835 21.024C100.835 17.1456 103.684 14.2272 107.457 14.2272C111.231 14.2272 114.08 17.1456 114.08 21.024C114.08 24.9408 111.231 27.8592 107.457 27.8592C103.684 27.8592 100.835 24.9408 100.835 21.024Z" fill="#151921"/>
<path d="M20.3008 20C20.3008 25.5228 24.7779 30 30.3008 30H40.3008C40.0726 25.8856 38.1498 22.5523 34.5322 20C37.9575 17.6164 39.8804 14.2831 40.3008 10H30.3008C24.7779 10 20.3008 14.4772 20.3008 20Z" fill="url(#paint0_linear_11_8147)"/>
<path d="M20.3008 20C20.3008 25.5228 15.8236 30 10.3008 30H0.300781C0.528942 25.8856 2.45179 22.5523 6.06932 20C2.64405 17.6164 0.721207 14.2831 0.300781 10H10.3008C15.8236 10 20.3008 14.4772 20.3008 20Z" fill="url(#paint1_linear_11_8147)"/>
<path d="M20.0996 20C25.6225 20 30.0996 15.5228 30.0996 10V0C25.9852 0.228161 22.6519 2.15101 20.0996 5.76854C17.716 2.34327 14.3827 0.420425 10.0996 0L10.0996 10C10.0996 15.5228 14.5768 20 20.0996 20Z" fill="url(#paint2_linear_11_8147)"/>
<path d="M20.0996 20C25.6225 20 30.0996 24.4772 30.0996 30V40C25.9852 39.7718 22.6519 37.849 20.0996 34.2315C17.716 37.6567 14.3827 39.5796 10.0996 40L10.0996 30C10.0996 24.4772 14.5768 20 20.0996 20Z" fill="url(#paint3_linear_11_8147)"/>
<path fill-rule="evenodd" clip-rule="evenodd" d="M10.2996 10C15.8217 10 20.2984 14.476 20.2996 19.9978L20.265 19.9987L20.0996 20C14.5768 20 10.0996 15.5228 10.0996 10L10.2996 10Z" fill="url(#paint4_linear_11_8147)"/>
<path fill-rule="evenodd" clip-rule="evenodd" d="M30.1007 10.002C30.0996 15.457 25.7306 19.8912 20.3008 19.9978C20.3018 14.5863 24.6013 10.1792 29.9706 10.0051L30.1007 10.002Z" fill="url(#paint5_linear_11_8147)"/>
<path fill-rule="evenodd" clip-rule="evenodd" d="M20.0996 20C20.1665 20 20.2332 20.0007 20.2998 20.002C20.2996 25.5228 15.8225 30 10.2996 30H10.0996C10.0996 24.4772 14.5768 20 20.0996 20Z" fill="url(#paint6_linear_11_8147)"/>
<path fill-rule="evenodd" clip-rule="evenodd" d="M30.0994 29.8346L30.1008 29.998C24.6702 29.8915 20.3008 25.456 20.3008 20C25.6764 20.1074 30.0122 24.4546 30.0994 29.8346Z" fill="url(#paint7_linear_11_8147)"/>
<defs>
<linearGradient id="paint0_linear_11_8147" x1="20.3008" y1="20" x2="36.1118" y2="28.1383" gradientUnits="userSpaceOnUse">
<stop stop-color="#EDC9F4"/>
<stop offset="1" stop-color="#336CFE"/>
</linearGradient>
<linearGradient id="paint1_linear_11_8147" x1="0.300782" y1="20" x2="18.3225" y2="23.3844" gradientUnits="userSpaceOnUse">
<stop stop-color="#A9EBFF"/>
<stop offset="1" stop-color="#2F4DFF"/>
</linearGradient>
<linearGradient id="paint2_linear_11_8147" x1="14.2996" y1="1.6" x2="27.0996" y2="13.8" gradientUnits="userSpaceOnUse">
<stop stop-color="#A7F4FF"/>
<stop offset="1" stop-color="#0C8DFF"/>
</linearGradient>
<linearGradient id="paint3_linear_11_8147" x1="20.0996" y1="20" x2="28.2379" y2="35.811" gradientUnits="userSpaceOnUse">
<stop stop-color="#312EFF"/>
<stop offset="1" stop-color="#0B8BFF"/>
</linearGradient>
<linearGradient id="paint4_linear_11_8147" x1="10.0996" y1="10" x2="13.6647" y2="21.3504" gradientUnits="userSpaceOnUse">
<stop stop-color="#CBFBFF"/>
<stop offset="1" stop-color="#76D3FF"/>
</linearGradient>
<linearGradient id="paint5_linear_11_8147" x1="21.3897" y1="18.8871" x2="31.4004" y2="16.4492" gradientUnits="userSpaceOnUse">
<stop stop-color="#F9F2FF"/>
<stop offset="1" stop-color="#99D2FF"/>
</linearGradient>
<linearGradient id="paint6_linear_11_8147" x1="10.6663" y1="29.4444" x2="21.7044" y2="25.4574" gradientUnits="userSpaceOnUse">
<stop stop-color="#83AAFF"/>
<stop offset="1" stop-color="#448BFF"/>
</linearGradient>
<linearGradient id="paint7_linear_11_8147" x1="20.8452" y1="23.8881" x2="27.1605" y2="28.6993" gradientUnits="userSpaceOnUse">
<stop stop-color="#F9F2FF"/>
<stop offset="1" stop-color="#99D2FF"/>
</linearGradient>
</defs>
</svg>
